<svg width="24" height="24" viewBox="0 0 24 24" fill="none" xmlns="http://www.w3.org/2000/svg">
<rect x="0.5" y="0.5" width="23" height="23" rx="11.5" fill="#9D9D9D"/>
<path d="M15.331 14C14.2637 14 13.7003 13.5494 13.2477 13.1874C12.8697 12.8854 12.5963 12.6667 11.9957 12.6667C11.397 12.6667 11.1377 12.874 10.7463 13.1867C10.2937 13.5494 9.73034 14 8.66301 14C7.59567 14 7.03367 13.5494 6.58101 13.1867C6.18967 12.874 5.93101 12.6667 5.33301 12.6667V16C5.33301 16.7354 5.93101 17.3334 6.66634 17.3334H17.333C18.0683 17.3334 18.6663 16.7354 18.6663 16V12.6667C18.067 12.6667 17.8077 12.874 17.4157 13.1874C16.9623 13.5494 16.399 14 15.331 14ZM16.6663 7.33337H12.6663V5.33337H11.333V7.33337H7.33301C6.23034 7.33337 5.33301 8.23071 5.33301 9.33337V11.3334C6.39967 11.3334 6.96167 11.784 7.41434 12.1467C7.80567 12.4594 8.06434 12.6667 8.66301 12.6667C9.26234 12.6667 9.52101 12.4594 9.91301 12.146C10.3657 11.784 10.929 11.3334 11.9957 11.3334C13.0637 11.3334 13.627 11.784 14.0803 12.146C14.4723 12.4594 14.7317 12.6667 15.331 12.6667C15.931 12.6667 16.205 12.448 16.583 12.146C17.0357 11.784 17.599 11.3334 18.6663 11.3334V9.33337C18.6663 8.23071 17.769 7.33337 16.6663 7.33337Z" fill="white"/>
<rect x="0.5" y="0.5" width="23" height="23" rx="11.5" stroke="white"/>
</svg>
