<svg width="46" height="56" viewBox="0 0 46 56" fill="none" xmlns="http://www.w3.org/2000/svg">
<mask id="path-1-outside-1_1608_6011" maskUnits="userSpaceOnUse" x="0.666016" y="0.333252" width="45" height="56" fill="black">
<rect fill="white" x="0.666016" y="0.333252" width="45" height="56"/>
<path d="M22.9996 54.6666C22.9996 54.6666 44.4102 39.8399 44.3329 22.6666C44.3329 10.9039 34.7622 1.33325 22.9996 1.33325C11.2369 1.33325 1.66623 10.9039 1.66623 22.6533C1.5889 39.8399 22.1889 54.0906 22.9996 54.6666Z"/>
</mask>
<path d="M22.9996 54.6666C22.9996 54.6666 44.4102 39.8399 44.3329 22.6666C44.3329 10.9039 34.7622 1.33325 22.9996 1.33325C11.2369 1.33325 1.66623 10.9039 1.66623 22.6533C1.5889 39.8399 22.1889 54.0906 22.9996 54.6666Z" fill="#FF8400"/>
<path d="M22.9996 54.6666C22.9996 54.6666 44.4102 39.8399 44.3329 22.6666C44.3329 10.9039 34.7622 1.33325 22.9996 1.33325C11.2369 1.33325 1.66623 10.9039 1.66623 22.6533C1.5889 39.8399 22.1889 54.0906 22.9996 54.6666Z" stroke="white" stroke-width="2" mask="url(#path-1-outside-1_1608_6011)"/>
<path d="M27.997 26C26.396 26 25.551 25.324 24.872 24.781C24.305 24.328 23.895 24 22.994 24C22.096 24 21.707 24.311 21.12 24.78C20.441 25.324 19.596 26 17.995 26C16.394 26 15.551 25.324 14.872 24.78C14.285 24.311 13.897 24 13 24V29C13 30.103 13.897 31 15 31H31C32.103 31 33 30.103 33 29V24C32.101 24 31.712 24.311 31.124 24.781C30.444 25.324 29.599 26 27.997 26ZM30 16H24V13H22V16H16C14.346 16 13 17.346 13 19V22C14.6 22 15.443 22.676 16.122 23.22C16.709 23.689 17.097 24 17.995 24C18.894 24 19.282 23.689 19.87 23.219C20.549 22.676 21.394 22 22.994 22C24.596 22 25.441 22.676 26.121 23.219C26.709 23.689 27.098 24 27.997 24C28.897 24 29.308 23.672 29.875 23.219C30.554 22.676 31.399 22 33 22V19C33 17.346 31.654 16 30 16Z" fill="white"/>
</svg>
