<svg width="46" height="56" viewBox="0 0 46 56" fill="none" xmlns="http://www.w3.org/2000/svg">
<mask id="path-1-outside-1_1673_6211" maskUnits="userSpaceOnUse" x="0.666016" y="0.333252" width="45" height="56" fill="black">
<rect fill="white" x="0.666016" y="0.333252" width="45" height="56"/>
<path d="M22.9996 54.6666C22.9996 54.6666 44.4102 39.8399 44.3329 22.6666C44.3329 10.9039 34.7622 1.33325 22.9996 1.33325C11.2369 1.33325 1.66623 10.9039 1.66623 22.6533C1.5889 39.8399 22.1889 54.0906 22.9996 54.6666Z"/>
</mask>
<path d="M22.9996 54.6666C22.9996 54.6666 44.4102 39.8399 44.3329 22.6666C44.3329 10.9039 34.7622 1.33325 22.9996 1.33325C11.2369 1.33325 1.66623 10.9039 1.66623 22.6533C1.5889 39.8399 22.1889 54.0906 22.9996 54.6666Z" fill="#FE6666"/>
<path d="M22.9996 54.6666C22.9996 54.6666 44.4102 39.8399 44.3329 22.6666C44.3329 10.9039 34.7622 1.33325 22.9996 1.33325C11.2369 1.33325 1.66623 10.9039 1.66623 22.6533C1.5889 39.8399 22.1889 54.0906 22.9996 54.6666Z" stroke="white" stroke-width="2" mask="url(#path-1-outside-1_1673_6211)"/>
<path d="M32.947 20.179C32.8842 19.9939 32.7685 19.8312 32.6142 19.7111C32.46 19.5909 32.2739 19.5186 32.079 19.503L26.378 19.05L23.911 13.589C23.8325 13.4131 23.7047 13.2637 23.5431 13.1589C23.3815 13.054 23.193 12.9982 23.0004 12.998C22.8077 12.9979 22.6192 13.0536 22.4575 13.1583C22.2957 13.263 22.1678 13.4122 22.089 13.588L19.622 19.05L13.921 19.503C13.7295 19.5182 13.5464 19.5882 13.3936 19.7047C13.2408 19.8213 13.1248 19.9793 13.0595 20.16C12.9942 20.3408 12.9824 20.5364 13.0254 20.7237C13.0684 20.911 13.1644 21.0819 13.302 21.216L17.515 25.323L16.025 31.775C15.9798 31.9703 15.9943 32.1747 16.0666 32.3617C16.139 32.5486 16.2659 32.7095 16.4308 32.8235C16.5958 32.9374 16.7911 32.9991 16.9916 33.0007C17.1921 33.0022 17.3884 32.9434 17.555 32.832L23 29.202L28.445 32.832C28.6154 32.9451 28.8162 33.0033 29.0207 32.9988C29.2251 32.9944 29.4232 32.9274 29.5884 32.8069C29.7536 32.6865 29.878 32.5183 29.9448 32.3251C30.0116 32.1318 30.0176 31.9228 29.962 31.726L28.133 25.326L32.669 21.244C32.966 20.976 33.075 20.558 32.947 20.179Z" fill="white"/>
</svg>
