<svg width="24" height="24" viewBox="0 0 24 24" fill="none" xmlns="http://www.w3.org/2000/svg">
<rect x="0.5" y="0.5" width="23" height="23" rx="11.5" fill="#FE6666"/>
<path d="M18.631 10.1193C18.5891 9.99592 18.512 9.88747 18.4092 9.80738C18.3063 9.72729 18.1823 9.67908 18.0524 9.66868L14.2517 9.36668L12.607 5.72601C12.5546 5.60875 12.4695 5.50916 12.3617 5.43925C12.254 5.36934 12.1283 5.3321 11.9999 5.33203C11.8715 5.33196 11.7458 5.36906 11.638 5.43885C11.5302 5.50864 11.4449 5.60814 11.3924 5.72534L9.74769 9.36668L5.94703 9.66868C5.81933 9.67879 5.69725 9.72548 5.5954 9.80316C5.49354 9.88084 5.41622 9.98622 5.37269 10.1067C5.32915 10.2272 5.32125 10.3576 5.34992 10.4825C5.37859 10.6073 5.44263 10.7213 5.53436 10.8107L8.34303 13.5487L7.34969 17.85C7.31953 17.9802 7.3292 18.1165 7.37744 18.2411C7.42568 18.3657 7.51027 18.473 7.62023 18.549C7.73019 18.6249 7.86044 18.6661 7.99408 18.6671C8.12772 18.6681 8.25859 18.629 8.36969 18.5547L11.9997 16.1347L15.6297 18.5547C15.7432 18.6301 15.8772 18.6689 16.0134 18.6659C16.1497 18.6629 16.2818 18.6183 16.392 18.538C16.5021 18.4577 16.585 18.3456 16.6295 18.2167C16.6741 18.0879 16.6781 17.9485 16.641 17.8173L15.4217 13.5507L18.4457 10.8293C18.6437 10.6507 18.7164 10.372 18.631 10.1193Z" fill="white"/>
<rect x="0.5" y="0.5" width="23" height="23" rx="11.5" stroke="white"/>
</svg>
