<svg width="81" height="12" viewBox="0 0 81 12" fill="none" xmlns="http://www.w3.org/2000/svg">
<path d="M6.71428 12C5.56303 12 4.55505 11.7839 3.69106 11.3526C2.82707 10.9212 2.1583 10.3194 1.68399 9.54948C1.20969 8.7788 0.972168 7.88563 0.972168 6.86921C0.972168 5.85279 1.14511 4.94059 1.49175 4.0984C1.83838 3.25696 2.32605 2.5304 2.95548 1.91796C3.58417 1.30628 4.33089 0.83307 5.19487 0.499842C6.05886 0.166614 7.00747 0 8.04143 0C9.0754 0 10.073 0.197046 10.9043 0.590377C11.7357 0.983707 12.354 1.55202 12.76 2.29531L10.0411 4.47575C9.80652 4.0497 9.5022 3.71876 9.12958 3.48368C8.75623 3.24859 8.31384 3.13143 7.80243 3.13143C7.35484 3.13143 6.9466 3.21587 6.57919 3.38553C6.21103 3.55519 5.89408 3.7956 5.62761 4.10677C5.36114 4.41793 5.15331 4.78691 5.00411 5.21296C4.85492 5.639 4.77995 6.10917 4.77995 6.62271C4.77995 7.07082 4.8757 7.46415 5.06795 7.8027C5.26019 8.14125 5.52889 8.40373 5.87552 8.58936C6.22216 8.77499 6.62446 8.86781 7.08318 8.86781C7.54189 8.86781 7.94939 8.76434 8.371 8.55665C8.79186 8.34895 9.1949 8.0104 9.57865 7.54023L11.8017 9.72066C11.1196 10.5735 10.3595 11.1662 9.52224 11.4994C8.68497 11.8326 7.74973 11.9992 6.71502 11.9992L6.71428 12Z" fill="#616161"/>
<path d="M16.0222 11.7383H12.2478L14.4872 0.263245H18.2616L16.0222 11.7383ZM20.5804 7.50905H16.5982L17.2217 4.32893H21.2039L20.5804 7.50905ZM21.748 0.263245H25.5223L23.283 11.7383H19.5086L21.748 0.263245Z" fill="#616161"/>
<path d="M30.7523 12C29.5899 12 28.6198 11.7733 27.8412 11.3199C27.0625 10.8665 26.511 10.2327 26.1859 9.4179C25.8608 8.60386 25.8044 7.65591 26.0182 6.57406L27.2496 0.262512H31.024L29.8082 6.50863C29.7332 6.91337 29.7065 7.26257 29.728 7.55776C29.7495 7.85295 29.8215 8.09869 29.944 8.29573C30.0665 8.49278 30.2342 8.63733 30.448 8.73015C30.661 8.82296 30.9171 8.86937 31.2155 8.86937C31.5777 8.86937 31.8894 8.79329 32.1515 8.63961C32.4127 8.48669 32.631 8.23563 32.8069 7.88566C32.9828 7.5357 33.1238 7.07694 33.2307 6.50863L34.4465 0.262512H38.1571L36.8937 6.73763C36.5634 8.45322 35.8858 9.7595 34.8622 10.6557C33.8386 11.5519 32.4684 12 30.7516 12H30.7523Z" fill="#616161"/>
<path d="M43.292 12C42.1297 12 41.1595 11.7733 40.3809 11.3199C39.6023 10.8665 39.0508 10.2327 38.7257 9.4179C38.4006 8.60386 38.3441 7.65591 38.5579 6.57406L39.7893 0.262512H43.5637L42.3479 6.50863C42.2729 6.91337 42.2462 7.26257 42.2677 7.55776C42.2892 7.85295 42.3612 8.09869 42.4837 8.29573C42.6062 8.49278 42.7739 8.63733 42.9877 8.73015C43.2007 8.82296 43.4568 8.86937 43.7552 8.86937C44.1174 8.86937 44.4292 8.79329 44.6912 8.63961C44.9525 8.48669 45.1707 8.23563 45.3466 7.88566C45.5225 7.5357 45.6635 7.07694 45.7704 6.50863L46.9863 0.262512H50.6968L49.4335 6.73763C49.1024 8.45322 48.4255 9.7595 47.4019 10.6557C46.3783 11.5519 45.0081 12 43.2913 12H43.292Z" fill="#616161"/>
<path d="M50.1854 11.7383L52.4248 0.263245H56.1353L53.8959 11.7383H50.1854ZM54.0399 9.37755L54.5996 5.03342L59.5898 0.263245H63.9238L58.1817 5.60782L55.6224 7.87042L54.0392 9.37831L54.0399 9.37755ZM57.7505 11.7383L55.0472 7.27928L57.8462 4.68878L61.9568 11.7375H57.7505V11.7383Z" fill="#616161"/>
<path d="M60.6453 11.7383L67.7784 0.263245H71.4889L74.144 11.7383H70.3852L68.5778 2.04959H70.0489L64.6267 11.7383H60.6445H60.6453ZM63.9402 9.73817L65.4432 6.95138H70.593L71.0087 9.73817H63.9394H63.9402Z" fill="#616161"/>
<path d="M76.5912 11.9019C76.0048 11.9019 75.5246 11.7269 75.152 11.3777C74.7786 11.0277 74.5923 10.6017 74.5923 10.0988C74.5923 9.48713 74.8053 8.98425 75.2321 8.59092C75.6582 8.19759 76.1859 8.00054 76.8153 8.00054C77.4121 8.00054 77.8946 8.1702 78.2628 8.50875C78.6309 8.84807 78.8143 9.26879 78.8143 9.77091C78.8143 10.1642 78.7155 10.5226 78.5181 10.8444C78.3207 11.167 78.0571 11.4241 77.7261 11.6151C77.3958 11.806 77.0172 11.9019 76.5904 11.9019H76.5912ZM75.7754 7.34474L76.4309 0.262512H80.7493L78.6539 7.34474H75.7747H75.7754Z" fill="#616161"/>
</svg>
