<svg width="24" height="24" viewBox="0 0 24 24" fill="none" xmlns="http://www.w3.org/2000/svg">
<path d="M19.148 3.471C18.9698 3.17552 18.7185 2.93095 18.4183 2.76087C18.118 2.59079 17.779 2.50095 17.434 2.5H6.566C5.868 2.5 5.211 2.872 4.852 3.471L2.143 7.985C2.04926 8.14041 1.99981 8.3185 2 8.5C2.00399 9.46521 2.35949 10.3959 3 11.118V19.5C3 20.603 3.897 21.5 5 21.5H19C20.103 21.5 21 20.603 21 19.5V11.118C21.6405 10.3959 21.996 9.46521 22 8.5C22.0002 8.3185 21.9507 8.14041 21.857 7.985L19.148 3.471ZM19.984 8.751C19.9223 9.23382 19.6868 9.67764 19.3217 9.99952C18.9566 10.3214 18.4867 10.4993 18 10.5C16.897 10.5 16 9.603 16 8.5C16 8.432 15.975 8.372 15.961 8.308L15.981 8.304L15.22 4.5H17.434L19.984 8.751ZM10.819 4.5H13.18L13.993 8.565C13.958 9.637 13.08 10.5 12 10.5C10.92 10.5 10.042 9.637 10.007 8.565L10.819 4.5ZM6.566 4.5H8.78L8.02 8.304L8.04 8.308C8.025 8.372 8 8.432 8 8.5C8 9.603 7.103 10.5 6 10.5C5.51325 10.4993 5.04341 10.3214 4.67828 9.99952C4.31315 9.67764 4.07772 9.23382 4.016 8.751L6.566 4.5ZM10 19.5V16.5H14V19.5H10ZM16 19.5V16.5C16 15.397 15.103 14.5 14 14.5H10C8.897 14.5 8 15.397 8 16.5V19.5H5V12.358C5.321 12.441 5.652 12.5 6 12.5C6.56782 12.5003 7.12915 12.3794 7.6465 12.1454C8.16386 11.9114 8.6253 11.5696 9 11.143C9.733 11.975 10.807 12.5 12 12.5C13.193 12.5 14.267 11.975 15 11.143C15.3747 11.5696 15.8361 11.9114 16.3535 12.1454C16.8708 12.3794 17.4322 12.5003 18 12.5C18.348 12.5 18.679 12.441 19 12.358V19.5H16Z" fill="#191919"/>
</svg>
