<?xml version="1.0" encoding="UTF-8"?><svg xmlns="http://www.w3.org/2000/svg" viewBox="0 0 1083.62 686.2"><defs><style>.c{fill:#e781a0;}.d{fill:#8bd;}.e{fill:#c93840;}.f{fill:#6184ce;}.g{fill:#70ad58;}.h{fill:#65a4d8;}.i{fill:#2d89aa;}.j{fill:#b22f27;}.k{fill:#f5ec76;}.l{fill:#ffd5de;}.m{fill:#8447c7;}.n{fill:#f3b04c;}.o{fill:#3653a2;}.p{fill:#4066ba;}.q{fill:#fefe20;}.r{fill:#d6e03a;}.s{fill:#f8d153;}.t{fill:#bf63a9;}.u{fill:#e1b7ff;}.v{fill:#e783a1;}.w{fill:#bdda67;}.x{fill:#3ccb9b;}.y{fill:#ff8f88;}</style></defs><g id="a"><g><path d="M86.19,430.42c-15.51,0-29.09-2.84-40.73-8.51s-20.65-13.58-27.04-23.7c-6.39-10.13-9.59-21.87-9.59-35.23s2.33-25.35,7-36.42c4.67-11.06,11.24-20.61,19.72-28.66,8.47-8.04,18.53-14.26,30.17-18.64,11.64-4.38,24.42-6.57,38.35-6.57s27.37,2.59,38.57,7.76,19.53,12.64,25,22.41l-36.63,28.66c-3.16-5.6-7.26-9.95-12.28-13.04-5.03-3.09-10.99-4.63-17.88-4.63-6.03,0-11.53,1.11-16.48,3.34-4.96,2.23-9.23,5.39-12.82,9.48-3.59,4.09-6.39,8.94-8.4,14.54-2.01,5.6-3.02,11.78-3.02,18.53,0,5.89,1.29,11.06,3.88,15.51,2.59,4.45,6.21,7.9,10.88,10.34,4.67,2.44,10.09,3.66,16.27,3.66s11.67-1.36,17.35-4.09c5.67-2.73,11.1-7.18,16.27-13.36l29.95,28.66c-9.19,11.21-19.43,19-30.71,23.38-11.28,4.38-23.88,6.57-37.82,6.57Z"/><path d="M211.59,426.98h-50.85l30.17-150.83h50.85l-30.17,150.83Zm61.41-55.59h-53.65l8.4-41.8h53.65l-8.4,41.8Zm15.73-95.24h50.85l-30.17,150.83h-50.85l30.17-150.83Z"/><path d="M410.04,430.42c-15.66,0-28.73-2.98-39.22-8.94-10.49-5.96-17.92-14.29-22.3-25-4.38-10.7-5.14-23.16-2.26-37.38l16.59-82.96h50.85l-16.38,82.1c-1.01,5.32-1.37,9.91-1.08,13.79,.29,3.88,1.26,7.11,2.91,9.7,1.65,2.59,3.91,4.49,6.79,5.71,2.87,1.22,6.32,1.83,10.34,1.83,4.88,0,9.08-1,12.61-3.02,3.52-2.01,6.46-5.31,8.83-9.91,2.37-4.6,4.27-10.63,5.71-18.1l16.38-82.1h49.99l-17.02,85.11c-4.45,22.55-13.58,39.72-27.37,51.5-13.79,11.78-32.25,17.67-55.38,17.67Z"/><path d="M578.98,430.42c-15.66,0-28.73-2.98-39.22-8.94-10.49-5.96-17.92-14.29-22.3-25-4.38-10.7-5.14-23.16-2.26-37.38l16.59-82.96h50.85l-16.38,82.1c-1.01,5.32-1.37,9.91-1.08,13.79,.29,3.88,1.26,7.11,2.91,9.7,1.65,2.59,3.91,4.49,6.79,5.71,2.87,1.22,6.32,1.83,10.34,1.83,4.88,0,9.08-1,12.61-3.02,3.52-2.01,6.46-5.31,8.83-9.91,2.37-4.6,4.27-10.63,5.71-18.1l16.38-82.1h49.99l-17.02,85.11c-4.46,22.55-13.58,39.72-27.37,51.5-13.79,11.78-32.25,17.67-55.38,17.67Z"/><path d="M671.85,426.98l30.17-150.83h49.99l-30.17,150.83h-49.99Zm51.93-31.03l7.54-57.1,67.23-62.7h58.39l-77.36,70.25-34.48,29.74-21.33,19.82Zm49.99,31.03l-36.42-58.61,37.71-34.05,55.38,92.65h-56.67Z"/><path d="M812.77,426.98l96.1-150.83h49.99l35.77,150.83h-50.64l-24.35-127.35h19.82l-73.05,127.35h-53.65Zm44.39-26.29l20.25-36.63h69.38l5.6,36.63h-95.24Z"/><path d="M1027.6,429.13c-7.9,0-14.37-2.3-19.39-6.89-5.03-4.6-7.54-10.2-7.54-16.81,0-8.04,2.87-14.65,8.62-19.82,5.74-5.17,12.85-7.76,21.33-7.76,8.04,0,14.54,2.23,19.5,6.68,4.96,4.46,7.43,9.99,7.43,16.59,0,5.17-1.33,9.88-3.99,14.11-2.66,4.24-6.21,7.62-10.67,10.13-4.45,2.51-9.55,3.77-15.3,3.77Zm-10.99-59.9l8.83-93.09h58.18l-28.23,93.09h-38.79Z"/></g></g><g id="b"><g><path class="k" d="M343.46,175.43c-.78-3.91-21.91-26.61-29.35-35.22-7.43-8.61-32.09-21.52-43.04-21.91,0,0-.78-6.65-5.87-9.78s-11.74-14.48-14.09-17.61c-2.35-3.13-9.39-12.13-16.83-15.26-7.43-3.13-14.09-10.96-19.57-10.96s-17.61,4.7-21.13,10.17c0,0-1.17,7.43,3.91,10.17,0,0,1.96,.78,9-1.57,7.04-2.35,16.04-3.91,25.04,7.43s17.61,21.91,20.74,31.3c0,0-25.43,12.91-27,42.26-1.57,29.35,2.35,27.78,9,34.43s12.13,12.13,21.13,12.13,14.48-7.83,21.91-19.17c7.43-11.35,9-16.43,7.04-28.57-1.96-12.13-3.91-20.35-3.91-20.35,0,0,13.3,3.91,29.35,20.35s23.48,23.87,27,37.96c0,0,11.35-14.87,15.65-12.52,4.3,2.35-8.22-9.39-9-13.3Zm-84.13,12.52c-5.48,9.78-23.09,1.96-21.13-19.96,1.96-21.91,23.09-26.22,23.09-26.22,7.43,30.13,3.52,36.39-1.96,46.17Z"/><path class="k" d="M364.2,76.04s-19.17,15.65-23.87,23.09c0,0,.39,2.35,29.35,.39,0,0,5.48,29.35,9,30.91s1.57-8.61,10.96-30.52c0,0,20.74-1.17,25.04,.78s3.91-2.74-18.39-23.09c0,0,6.26-9.39,6.65-25.83,0,0-.78-1.96-19.17,12.91,0,0-11.74-14.09-19.17-18s-1.96,17.22-.39,29.35Z"/><path class="k" d="M474.68,49.04s-.52,20.87,3.13,31.83,4.17,28.7,4.17,28.7c0,0-1.04,6.26,6.78,2.61s4.17-7.83,14.61-6.78c0,0-5.22-34.96-4.17-54.26s2.61-3.65-24.52-2.09Z"/><path class="k" d="M668.25,46.96c-6.78-10.96-27.65-12-27.65-12,0,0,12-19.3,21.39-20.35,9.39-1.04,10.43-5.22-6.26-14.61,0,0-2.61,6.78-15.13,15.13-12.52,8.35-16.17,19.3-16.17,19.3,0,0-18.78,6.26-34.43,31.3-15.65,25.04-12,51.65-12,51.65h17.74s-1.57-31.3,12.52-50.09c14.09-18.78,12-13.57,12-13.57,0,0-3.65,19.3,4.17,25.57,7.83,6.26,.52,8.35,19.83,9.39,19.3,1.04,19.83-4.17,23.48-11.48,3.65-7.3,7.3-19.3,.52-30.26Zm-15.13,20.87c-3.65,6.26-12,17.74-19.3,7.83-7.3-9.91,2.09-31.83,2.09-31.83,23.48-5.22,20.87,17.74,17.22,24Z"/><path class="k" d="M789.81,18.26s-5.74,6.26-9.91,8.35-9.91,15.65-9.91,15.65c0,0,3.13,6.78,13.57,16.7s7.83,1.57,17.22-8.87,10.96-10.43,10.96-10.43c0,0-21.39-16.17-21.91-21.39Z"/><path class="k" d="M772.07,149.74s5.74-7.83,10.43-21.39,10.96-32.87,30.78-30.78,22.43-16.17,37.57-45.39c0,0,6.78,19.3,12,19.3s-3.65,10.43-6.26,21.91-12,22.96-24.52,24-26.09,4.7-33.39,28.17,0,12.52-26.61,4.17Z"/><path class="k" d="M905.64,45.39s2.61-2.09,4.17,3.13,8.35,16.17,8.35,16.17c0,0,1.04,6.26,9.91-2.61s13.04-9.91,13.04-9.91c0,0-4.7-8.87-5.74-16.17s-11.48-9.91-17.74-1.04,2.09-5.22-12,10.43Z"/><path class="k" d="M885.81,156.52s-3.65-30.78-.52-28.7,20.35,15.13,20.35,15.13c0,0,21.91-13.04,20.35-7.83s-9.39,18.78-7.3,22.96l15.13,18.26s-1.04,3.13-25.04,.52l-13.04,26.09s-5.22,6.26-5.74-16.7l-1.57-9.91s-12-2.09-18.78-3.65-.52-6.78,16.17-16.17Z"/><path class="k" d="M162.16,205.04s.52,2.61,1.04,14.61,2.09,14.09,2.09,14.09c0,0,18.26-4.17,26.61-2.61l-2.61-26.61s-17.74,1.57-27.13,.52Z"/><path class="k" d="M141.81,38.09s9.91,6.26,15.65,12,9.39,2.09,11.48-5.22,9.39-10.96,9.39-10.96c0,0-4.17-5.74-10.43-8.35s-13.57-14.61-19.83-1.04c0,0-1.04,3.65-4.17,6.26s-2.09,7.3-2.09,7.3Z"/><path class="k" d="M180.42,463.83s-4.7-28.17-1.57-27.65,17.74,15.65,17.74,15.65c0,0,10.43-5.74,13.57-8.35s4.7,1.57,.52,14.09l-2.61,7.83,15.13,12.52s2.61,3.13-21.39,2.09l-7.3,13.57s-6.26,7.83-7.83-13.57h-19.3s-5.22,1.04,13.04-16.17Z"/><path class="k" d="M154.33,555.65s12.52-14.09,44.35-21.39c0,0-4.17-8.87-2.61-11.48,0,0-58.96,15.13-69.39,43.3,0,0-15.13,7.83-26.09,25.04,0,0-6.26,6.78-8.87,7.83-2.61,1.04,8.35,5.22,8.87,12,0,0,7.3-15.13,15.65-21.39,8.35-6.26,11.48-11.48,11.48-11.48,0,0,5.74,15.65,18.78,20.35,13.04,4.7,26.09,.52,28.7-7.83,2.61-8.35,5.74-16.7-1.57-29.22-7.3-12.52-19.3-5.74-19.3-5.74Zm0,33.91c-9.91,2.09-14.09-18.26-14.09-18.26,19.83-7.3,27.13-4.17,28.17,4.7s-4.17,11.48-14.09,13.57Z"/><path class="k" d="M925.99,228s1.57,19.83,7.3,20.35,10.96-6.78,16.7-6.78,3.13-6.26,.52-14.09c-2.61-7.83-3.13-8.87-13.04-3.65s-11.48,4.17-11.48,4.17Z"/><path class="k" d="M279.55,525.39s-9.91,8.35-20.35,12,25.04,10.96,25.04,10.96l2.09,17.74s0,14.09,13.04-12.52c0,0,17.22,2.61,21.91,7.3s10.96,5.22,4.7-5.22-13.57-21.39-13.57-21.39c0,0,14.09-26.09,17.22-26.09s9.39-12-18.26,3.13l-9.39,3.13s-9.91-14.61-12.52-18.78-8.87-18.26-9.39,4.7-.52,25.04-.52,25.04Z"/><path class="k" d="M307.46,619.57l-21.52,41.48s-4.7,1.57,11.35,8.22,1.96,6.26,10.96-16.04,9-29.35,9-29.35c0,0-4.7-3.13-9.78-4.3Z"/><path class="k" d="M366.94,574.96c-.02,1.57-13.3,6.26-13.3,6.26,0,0-9,3.13,8.22,9.78l5.87,2.35,1.17,21.13s.78,1.57,10.96-16.04l18,10.57s8.61,7.04-1.57-7.83-8.22-15.65-8.22-15.65c0,0,5.87-12.91,14.48-19.57s-21.52,3.52-21.52,3.52l-10.17-14.87s-3.52-6.65-3.91,20.35Z"/><path class="k" d="M440.9,672s23.48,10.57,27.39,13.7-.39-8.61,2.35-26.61,4.7-60.26,4.7-60.26c0,0-10.57-1.96-11.35-4.3s-24.26,59.48-23.09,77.48Z"/><path class="k" d="M552.94,604.7l1.04-30.78s5.74,5.74,14.09,22.96l27.13-10.96s6.26-4.7-1.57,7.83-13.57,23.48-13.57,23.48l13.57,21.91s8.87,5.74-8.35-.52-15.65-3.65-15.65-3.65l-11.48,20.35s-4.17,5.22-4.17-10.43v-15.65s-30.26-8.87-33.39-13.04,32.35-11.48,32.35-11.48Z"/><path class="k" d="M728.77,621.91c-6.78-6.26-6.78-17.74-13.04-21.39s-12.52-20.35-34.96-37.04c-22.43-16.7-53.22-13.04-53.22-13.04,0,17.22,4.7,18.78,4.7,18.78,26.09-14.61,56.35,25.04,56.35,25.04-11.48-.52-35.48,40.7-9.91,52.17,25.57,11.48,41.22-6.26,41.22-6.26,10.43,16.17,3.13,41.74,8.87,34.96,5.74-6.78,9.91,0,10.96-8.35,1.04-8.35-4.17-38.61-10.96-44.87Zm-22.96,9.91c-7.83,8.35-14.09,7.83-20.87-3.65s7.83-12.52,7.83-12.52c13.04-3.13,20.87,7.83,13.04,16.17Z"/><path class="k" d="M713.64,511.3s.52,33.39,4.7,36.52,25.57-1.57,26.09-4.7-2.09-33.39,2.09-37.57-13.04,8.35-32.87,5.74Z"/><path class="k" d="M794.51,513.91s6.26,12,13.57,50.61,17.22,47.48,17.22,47.48c0,0,14.09-9.91,21.91-11.48s12.52-10.96,12.52-10.96c0,0-11.48-18.26-23.48-40.7s-18.26-37.57-25.57-45.39c0,0-21.91,5.74-16.17,10.43Z"/><path class="k" d="M897.81,641.74s-5.74,13.04-8.35,14.09-6.26,10.43-3.65,10.43,18.78,3.65,20.87,7.83,9.39-8.87,14.61-10.43,2.61-9.91,2.61-9.91c0,0-10.43-5.22-14.09-5.22s-8.87-.52-12-6.78Z"/><path class="k" d="M991.2,589.04c-6.26-15.13-8.87-35.48-25.57-50.09-16.7-14.61-18.78-9.39-18.78-9.39,0,0-10.43-28.7-39.65-46.43s-38.61-32.35-57.39-35.48-23.48,14.09-17.74,16.17c0,0,66.26,22.43,87.65,52.7l8.87,11.48s-18.78,5.22-18.78,24.52,2.09,37.57,9.91,39.65c7.83,2.09,17.74,7.3,27.13-2.61s7.3-22.96,3.13-42.26c0,0,18.26,10.43,27.65,39.13,9.39,28.7,0,27.65,12.52,19.3,12.52-8.35,7.3-1.57,1.04-16.7Zm-70.96-23.48c-9.39-16.7,17.22-23.48,17.22-23.48,5.74,1.57,1.04,3.13,4.17,24s-12,16.17-21.39-.52Z"/></g><g><path class="r" d="M343.46,175.43c-.78-3.91-21.91-26.61-29.35-35.22-7.43-8.61-32.09-21.52-43.04-21.91,0,0-.78-6.65-5.87-9.78s-11.74-14.48-14.09-17.61c-2.35-3.13-9.39-12.13-16.83-15.26-7.43-3.13-14.09-10.96-19.57-10.96s-17.61,4.7-21.13,10.17c0,0-1.17,7.43,3.91,10.17,0,0,1.96,.78,9-1.57,7.04-2.35,16.04-3.91,25.04,7.43s17.61,21.91,20.74,31.3c0,0-25.43,12.91-27,42.26-1.57,29.35,2.35,27.78,9,34.43s12.13,12.13,21.13,12.13,14.48-7.83,21.91-19.17c7.43-11.35,9-16.43,7.04-28.57-1.96-12.13-3.91-20.35-3.91-20.35,0,0,13.3,3.91,29.35,20.35s23.48,23.87,27,37.96c0,0,11.35-14.87,15.65-12.52,4.3,2.35-8.22-9.39-9-13.3Zm-84.13,12.52c-5.48,9.78-23.09,1.96-21.13-19.96,1.96-21.91,23.09-26.22,23.09-26.22,7.43,30.13,3.52,36.39-1.96,46.17Z"/><path class="y" d="M364.2,76.04s-19.17,15.65-23.87,23.09c0,0,.39,2.35,29.35,.39,0,0,5.48,29.35,9,30.91s1.57-8.61,10.96-30.52c0,0,20.74-1.17,25.04,.78s3.91-2.74-18.39-23.09c0,0,6.26-9.39,6.65-25.83,0,0-.78-1.96-19.17,12.91,0,0-11.74-14.09-19.17-18s-1.96,17.22-.39,29.35Z"/><path class="f" d="M474.68,49.04s-.52,20.87,3.13,31.83,4.17,28.7,4.17,28.7c0,0-1.04,6.26,6.78,2.61s4.17-7.83,14.61-6.78c0,0-5.22-34.96-4.17-54.26s2.61-3.65-24.52-2.09Z"/><path class="x" d="M668.25,46.96c-6.78-10.96-27.65-12-27.65-12,0,0,12-19.3,21.39-20.35,9.39-1.04,10.43-5.22-6.26-14.61,0,0-2.61,6.78-15.13,15.13-12.52,8.35-16.17,19.3-16.17,19.3,0,0-18.78,6.26-34.43,31.3-15.65,25.04-12,51.65-12,51.65h17.74s-1.57-31.3,12.52-50.09c14.09-18.78,12-13.57,12-13.57,0,0-3.65,19.3,4.17,25.57,7.83,6.26,.52,8.35,19.83,9.39,19.3,1.04,19.83-4.17,23.48-11.48,3.65-7.3,7.3-19.3,.52-30.26Zm-15.13,20.87c-3.65,6.26-12,17.74-19.3,7.83-7.3-9.91,2.09-31.83,2.09-31.83,23.48-5.22,20.87,17.74,17.22,24Z"/><path class="o" d="M789.81,18.26s-5.74,6.26-9.91,8.35-9.91,15.65-9.91,15.65c0,0,3.13,6.78,13.57,16.7s7.83,1.57,17.22-8.87,10.96-10.43,10.96-10.43c0,0-21.39-16.17-21.91-21.39Z"/><path class="c" d="M772.07,149.74s5.74-7.83,10.43-21.39,10.96-32.87,30.78-30.78,22.43-16.17,37.57-45.39c0,0,6.78,19.3,12,19.3s-3.65,10.43-6.26,21.91-12,22.96-24.52,24-26.09,4.7-33.39,28.17,0,12.52-26.61,4.17Z"/><path class="s" d="M905.64,45.39s2.61-2.09,4.17,3.13,8.35,16.17,8.35,16.17c0,0,1.04,6.26,9.91-2.61s13.04-9.91,13.04-9.91c0,0-4.7-8.87-5.74-16.17s-11.48-9.91-17.74-1.04,2.09-5.22-12,10.43Z"/><path class="d" d="M885.81,156.52s-3.65-30.78-.52-28.7,20.35,15.13,20.35,15.13c0,0,21.91-13.04,20.35-7.83s-9.39,18.78-7.3,22.96l15.13,18.26s-1.04,3.13-25.04,.52l-13.04,26.09s-5.22,6.26-5.74-16.7l-1.57-9.91s-12-2.09-18.78-3.65-.52-6.78,16.17-16.17Z"/><path class="i" d="M162.16,205.04s.52,2.61,1.04,14.61,2.09,14.09,2.09,14.09c0,0,18.26-4.17,26.61-2.61l-2.61-26.61s-17.74,1.57-27.13,.52Z"/><path class="v" d="M141.81,38.09s9.91,6.26,15.65,12,9.39,2.09,11.48-5.22,9.39-10.96,9.39-10.96c0,0-4.17-5.74-10.43-8.35s-13.57-14.61-19.83-1.04c0,0-1.04,3.65-4.17,6.26s-2.09,7.3-2.09,7.3Z"/><path class="u" d="M180.42,463.83s-4.7-28.17-1.57-27.65,17.74,15.65,17.74,15.65c0,0,10.43-5.74,13.57-8.35s4.7,1.57,.52,14.09l-2.61,7.83,15.13,12.52s2.61,3.13-21.39,2.09l-7.3,13.57s-6.26,7.83-7.83-13.57h-19.3s-5.22,1.04,13.04-16.17Z"/><path class="n" d="M154.33,555.65s12.52-14.09,44.35-21.39c0,0-4.17-8.87-2.61-11.48,0,0-58.96,15.13-69.39,43.3,0,0-15.13,7.83-26.09,25.04,0,0-6.26,6.78-8.87,7.83-2.61,1.04,8.35,5.22,8.87,12,0,0,7.3-15.13,15.65-21.39,8.35-6.26,11.48-11.48,11.48-11.48,0,0,5.74,15.65,18.78,20.35,13.04,4.7,26.09,.52,28.7-7.83,2.61-8.35,5.74-16.7-1.57-29.22-7.3-12.52-19.3-5.74-19.3-5.74Zm0,33.91c-9.91,2.09-14.09-18.26-14.09-18.26,19.83-7.3,27.13-4.17,28.17,4.7s-4.17,11.48-14.09,13.57Z"/><path class="q" d="M925.99,228s1.57,19.83,7.3,20.35,10.96-6.78,16.7-6.78,3.13-6.26,.52-14.09c-2.61-7.83-3.13-8.87-13.04-3.65s-11.48,4.17-11.48,4.17Z"/><path class="l" d="M279.55,525.39s-9.91,8.35-20.35,12,25.04,10.96,25.04,10.96l2.09,17.74s0,14.09,13.04-12.52c0,0,17.22,2.61,21.91,7.3s10.96,5.22,4.7-5.22-13.57-21.39-13.57-21.39c0,0,14.09-26.09,17.22-26.09s9.39-12-18.26,3.13l-9.39,3.13s-9.91-14.61-12.52-18.78-8.87-18.26-9.39,4.7-.52,25.04-.52,25.04Z"/><path class="e" d="M307.46,619.57l-21.52,41.48s-4.7,1.57,11.35,8.22,1.96,6.26,10.96-16.04,9-29.35,9-29.35c0,0-4.7-3.13-9.78-4.3Z"/><path class="p" d="M366.94,574.96c-.02,1.57-13.3,6.26-13.3,6.26,0,0-9,3.13,8.22,9.78l5.87,2.35,1.17,21.13s.78,1.57,10.96-16.04l18,10.57s8.61,7.04-1.57-7.83-8.22-15.65-8.22-15.65c0,0,5.87-12.91,14.48-19.57s-21.52,3.52-21.52,3.52l-10.17-14.87s-3.52-6.65-3.91,20.35Z"/><path class="g" d="M440.9,672s23.48,10.57,27.39,13.7-.39-8.61,2.35-26.61,4.7-60.26,4.7-60.26c0,0-10.57-1.96-11.35-4.3s-24.26,59.48-23.09,77.48Z"/><path class="j" d="M552.94,604.7l1.04-30.78s5.74,5.74,14.09,22.96l27.13-10.96s6.26-4.7-1.57,7.83-13.57,23.48-13.57,23.48l13.57,21.91s8.87,5.74-8.35-.52-15.65-3.65-15.65-3.65l-11.48,20.35s-4.17,5.22-4.17-10.43v-15.65s-30.26-8.87-33.39-13.04,32.35-11.48,32.35-11.48Z"/><path class="h" d="M728.77,621.91c-6.78-6.26-6.78-17.74-13.04-21.39s-12.52-20.35-34.96-37.04c-22.43-16.7-53.22-13.04-53.22-13.04,0,17.22,4.7,18.78,4.7,18.78,26.09-14.61,56.35,25.04,56.35,25.04-11.48-.52-35.48,40.7-9.91,52.17,25.57,11.48,41.22-6.26,41.22-6.26,10.43,16.17,3.13,41.74,8.87,34.96,5.74-6.78,9.91,0,10.96-8.35,1.04-8.35-4.17-38.61-10.96-44.87Zm-22.96,9.91c-7.83,8.35-14.09,7.83-20.87-3.65s7.83-12.52,7.83-12.52c13.04-3.13,20.87,7.83,13.04,16.17Z"/><path class="t" d="M713.64,511.3s.52,33.39,4.7,36.52,25.57-1.57,26.09-4.7-2.09-33.39,2.09-37.57-13.04,8.35-32.87,5.74Z"/><path class="m" d="M794.51,513.91s6.26,12,13.57,50.61,17.22,47.48,17.22,47.48c0,0,14.09-9.91,21.91-11.48s12.52-10.96,12.52-10.96c0,0-11.48-18.26-23.48-40.7s-18.26-37.57-25.57-45.39c0,0-21.91,5.74-16.17,10.43Z"/><path class="w" d="M897.81,641.74s-5.74,13.04-8.35,14.09-6.26,10.43-3.65,10.43,18.78,3.65,20.87,7.83,9.39-8.87,14.61-10.43,2.61-9.91,2.61-9.91c0,0-10.43-5.22-14.09-5.22s-8.87-.52-12-6.78Z"/><path class="k" d="M991.2,589.04c-6.26-15.13-8.87-35.48-25.57-50.09-16.7-14.61-18.78-9.39-18.78-9.39,0,0-10.43-28.7-39.65-46.43s-38.61-32.35-57.39-35.48-23.48,14.09-17.74,16.17c0,0,66.26,22.43,87.65,52.7l8.87,11.48s-18.78,5.22-18.78,24.52,2.09,37.57,9.91,39.65c7.83,2.09,17.74,7.3,27.13-2.61s7.3-22.96,3.13-42.26c0,0,18.26,10.43,27.65,39.13,9.39,28.7,0,27.65,12.52,19.3,12.52-8.35,7.3-1.57,1.04-16.7Zm-70.96-23.48c-9.39-16.7,17.22-23.48,17.22-23.48,5.74,1.57,1.04,3.13,4.17,24s-12,16.17-21.39-.52Z"/></g></g></svg>