<svg width="30" height="30" viewBox="0 0 30 30" fill="none" xmlns="http://www.w3.org/2000/svg">
<g clip-path="url(#clip0_313_607)">
<path d="M12.1875 24.375C12.0641 24.3758 11.9418 24.3521 11.8276 24.3055C11.7134 24.2588 11.6095 24.1901 11.5219 24.1032L3.08438 15.6657C2.99651 15.5785 2.92676 15.4748 2.87917 15.3606C2.83157 15.2463 2.80707 15.1238 2.80707 15.0001C2.80707 14.8763 2.83157 14.7538 2.87917 14.6395C2.92676 14.5253 2.99651 14.4216 3.08438 14.3344L11.5219 5.89693C11.6093 5.80952 11.7131 5.74018 11.8273 5.69287C11.9415 5.64556 12.0639 5.62122 12.1875 5.62122C12.3111 5.62122 12.4335 5.64556 12.5477 5.69287C12.6619 5.74018 12.7657 5.80952 12.8531 5.89693C12.9405 5.98434 13.0099 6.08811 13.0572 6.20232C13.1045 6.31653 13.1288 6.43893 13.1288 6.56255C13.1288 6.68617 13.1045 6.80858 13.0572 6.92279C13.0099 7.03699 12.9405 7.14077 12.8531 7.22818L5.07188 15.0001L12.8531 22.7719C12.941 22.8591 13.0107 22.9628 13.0583 23.077C13.1059 23.1913 13.1304 23.3138 13.1304 23.4375C13.1304 23.5613 13.1059 23.6838 13.0583 23.7981C13.0107 23.9123 12.941 24.016 12.8531 24.1032C12.7655 24.1901 12.6616 24.2588 12.5474 24.3055C12.4332 24.3521 12.3109 24.3758 12.1875 24.375Z" fill="black"/>
<path d="M26.25 15.9375H3.75C3.50136 15.9375 3.2629 15.8387 3.08709 15.6629C2.91127 15.4871 2.8125 15.2486 2.8125 15C2.8125 14.7514 2.91127 14.5129 3.08709 14.3371C3.2629 14.1613 3.50136 14.0625 3.75 14.0625H26.25C26.4986 14.0625 26.7371 14.1613 26.9129 14.3371C27.0887 14.5129 27.1875 14.7514 27.1875 15C27.1875 15.2486 27.0887 15.4871 26.9129 15.6629C26.7371 15.8387 26.4986 15.9375 26.25 15.9375Z" fill="black"/>
</g>
<defs>
<clipPath id="clip0_313_607">
<rect width="30" height="30" fill="white"/>
</clipPath>
</defs>
</svg>
