<svg width="20" height="20" viewBox="0 0 20 20" fill="none" xmlns="http://www.w3.org/2000/svg">
<path d="M10 0.25C9.99531 0.25 9.99531 0.25 9.99063 0.25C9.99063 0.25 9.99062 0.25 9.98594 0.25C9.98125 0.25 9.97656 0.25 9.97656 0.25C4.6 0.264063 0.25 4.62344 0.25 10C0.25 15.3766 4.6 19.7359 9.97656 19.75C9.98125 19.75 9.98594 19.75 9.98594 19.75H9.99063C9.99531 19.75 9.99531 19.75 10 19.75C15.3859 19.75 19.75 15.3859 19.75 10C19.75 4.61406 15.3859 0.25 10 0.25ZM10.3891 6.08594C11.425 6.05781 12.4281 5.92188 13.3984 5.6875C13.6891 6.83594 13.8719 8.1625 13.9 9.61563H10.3891V6.08594ZM10.3891 5.30313V1.09375C11.4391 1.38437 12.5078 2.78594 13.1828 4.9375C12.2828 5.15312 11.35 5.275 10.3891 5.30313ZM9.61094 1.08438V5.30781C8.64062 5.27969 7.69844 5.15312 6.79375 4.93281C7.47813 2.76719 8.55156 1.35625 9.61094 1.08438ZM9.61094 6.08594V9.61094H6.07656C6.10469 8.15781 6.2875 6.83125 6.57812 5.68281C7.55312 5.91719 8.57031 6.05781 9.61094 6.08594ZM5.28906 9.61094H1.04219C1.12656 7.60469 1.87656 5.76719 3.07187 4.31406C3.93906 4.79219 4.8625 5.18594 5.82812 5.47656C5.50938 6.71875 5.32188 8.12031 5.28906 9.61094ZM5.28906 10.3891C5.31719 11.875 5.50469 13.2812 5.82344 14.5234C4.85781 14.8188 3.93906 15.2078 3.06719 15.6859C1.87187 14.2328 1.12656 12.3953 1.0375 10.3891H5.28906ZM6.07656 10.3891H9.61094V13.9094C8.57031 13.9375 7.55312 14.0781 6.57812 14.3172C6.2875 13.1688 6.10469 11.8422 6.07656 10.3891ZM9.61094 14.6922V18.9203C8.55156 18.6437 7.47813 17.2375 6.79375 15.0719C7.69844 14.8469 8.64062 14.7203 9.61094 14.6922ZM10.3891 18.9062V14.6875C11.35 14.7156 12.2828 14.8422 13.1875 15.0578C12.5078 17.2141 11.4437 18.6156 10.3891 18.9062ZM10.3891 13.9094V10.3891H13.9C13.8719 11.8375 13.6891 13.1641 13.3984 14.3125C12.4281 14.0781 11.425 13.9375 10.3891 13.9094ZM14.6828 10.3891H18.9578C18.8734 12.3953 18.1234 14.2281 16.9281 15.6859C16.0516 15.2031 15.1234 14.8094 14.1484 14.5141C14.4672 13.2719 14.6547 11.875 14.6828 10.3891ZM14.6828 9.61094C14.6547 8.125 14.4672 6.72344 14.1531 5.48125C15.1281 5.18594 16.0562 4.79219 16.9281 4.31406C18.1234 5.76719 18.8734 7.60469 18.9578 9.61563H14.6828V9.61094ZM16.3937 3.71406C15.6156 4.12656 14.8 4.46875 13.9422 4.72656C13.4875 3.25938 12.8453 2.06406 12.0906 1.27656C13.75 1.675 15.2312 2.5375 16.3937 3.71406ZM7.88125 1.28594C7.12656 2.06875 6.48906 3.26406 6.03906 4.72187C5.19063 4.46406 4.37969 4.12656 3.61094 3.71406C4.75937 2.54219 6.23125 1.68437 7.88125 1.28594ZM3.60625 16.2812C4.375 15.8687 5.19062 15.5312 6.03437 15.2734C6.48906 16.7359 7.12656 17.9266 7.88125 18.7141C6.23125 18.3156 4.75938 17.4578 3.60625 16.2812ZM12.0906 18.7234C12.85 17.9359 13.4875 16.7406 13.9469 15.2687C14.8047 15.5266 15.6203 15.8687 16.3984 16.2812C15.2359 17.4625 13.75 18.325 12.0906 18.7234Z" fill="black"/>
</svg>
