<svg width="29" height="29" viewBox="0 0 29 29" fill="none" xmlns="http://www.w3.org/2000/svg">
<path d="M23.1206 7.4443C23.1206 7.65889 23.0782 7.8714 22.9962 8.06965C22.9141 8.26791 22.7936 8.44805 22.642 8.5998C22.4902 8.75155 22.3101 8.8719 22.1117 8.95403C21.9135 9.03616 21.7011 9.07842 21.4865 9.07842C21.2719 9.07842 21.0594 9.03616 20.8611 8.95403C20.6629 8.8719 20.4827 8.75155 20.3309 8.5998C20.1792 8.44805 20.0588 8.26791 19.9768 8.06965C19.8945 7.8714 19.8524 7.65889 19.8524 7.4443C19.8524 7.01091 20.0244 6.59527 20.3309 6.28881C20.6375 5.98235 21.0531 5.81019 21.4865 5.81019C21.9199 5.81019 22.3355 5.98235 22.642 6.28881C22.9484 6.59527 23.1206 7.01091 23.1206 7.4443ZM28.3088 14.8208V14.842L28.2153 20.7643C28.1915 22.9001 27.3324 24.9419 25.8222 26.4523C24.3121 27.9629 22.2705 28.8223 20.1347 28.8467L14.1911 28.9384H14.17L8.24761 28.8449C6.11174 28.8211 4.07004 27.962 2.55951 26.452C1.04895 24.9417 0.18956 22.9001 0.165251 20.7643L0.0734863 14.8208V14.7996L0.167016 8.87725C0.190857 6.74137 1.0498 4.69968 2.56002 3.18914C4.07023 1.67859 6.11174 0.819193 8.24761 0.794893L14.1911 0.703125H14.2123L20.1347 0.796658C22.2705 0.820499 24.3123 1.67943 25.8227 3.18965C27.3333 4.69987 28.1927 6.74137 28.2171 8.87725L28.3088 14.8208ZM25.6794 14.8208L25.5876 8.91783C25.5711 7.46598 24.9869 6.07825 23.9604 5.05156C22.9337 4.02489 21.5459 3.4408 20.0941 3.4243L14.1911 3.33254L8.2882 3.4243C6.83634 3.4408 5.44861 4.02489 4.42192 5.05156C3.39525 6.07825 2.81117 7.46598 2.79467 8.91783L2.70291 14.8208L2.79467 20.7237C2.81117 22.1756 3.39525 23.5633 4.42192 24.59C5.44861 25.6167 6.83634 26.2007 8.2882 26.2173L14.1911 26.309L20.0941 26.2173C21.5459 26.2007 22.9337 25.6167 23.9604 24.59C24.9869 23.5633 25.5711 22.1756 25.5876 20.7237L25.6794 14.8208ZM21.4406 14.8208C21.4406 16.7434 20.6768 18.5874 19.3173 19.9469C17.9578 21.3064 16.1138 22.0702 14.1911 22.0702C12.2685 22.0702 10.4246 21.3064 9.06502 19.9469C7.70549 18.5874 6.94173 16.7434 6.94173 14.8208C6.94173 12.8981 7.70549 11.0542 9.06502 9.69466C10.4246 8.33513 12.2685 7.57136 14.1911 7.57136C16.1138 7.57136 17.9578 8.33513 19.3173 9.69466C20.6768 11.0542 21.4406 12.8981 21.4406 14.8208ZM18.8112 14.8208C18.8112 13.5955 18.3245 12.4204 17.458 11.5539C16.5915 10.6875 15.4164 10.2008 14.1911 10.2008C12.9658 10.2008 11.7907 10.6875 10.9243 11.5539C10.0579 12.4204 9.57114 13.5955 9.57114 14.8208C9.57114 16.0461 10.0579 17.2211 10.9243 18.0876C11.7907 18.9541 12.9658 19.4408 14.1911 19.4408C15.4164 19.4408 16.5915 18.9541 17.458 18.0876C18.3245 17.2211 18.8112 16.0461 18.8112 14.8208Z" fill="#0497F9"/>
</svg>
