<svg width="24" height="30" viewBox="0 0 24 30" fill="none" xmlns="http://www.w3.org/2000/svg">
<path d="M22.575 16.5375C22.215 16.905 21.7425 17.085 21.2625 17.085C20.79 17.085 20.3175 16.905 19.95 16.545L13.845 10.4475V28.2C13.845 29.2275 13.0125 30 12.045 30C11.0775 30 10.14 29.2275 10.14 28.2V10.44L4.04996 16.5375C3.32246 17.265 2.15246 17.265 1.43246 16.5375C0.712465 15.81 0.704965 14.64 1.43246 13.92L10.695 4.65C11.4225 3.9225 12.5925 3.9225 13.3125 4.65L22.575 13.9125C23.3025 14.64 23.3025 15.81 22.575 16.5375Z" fill="#616161"/>
<path d="M21.87 3.66H2.12999C1.12499 3.66 0.299988 2.8425 0.299988 1.83C0.299988 0.8175 1.12499 0 2.12999 0H21.8625C22.875 0 23.7 0.8175 23.7 1.83C23.7 2.8425 22.875 3.66 21.87 3.66Z" fill="#616161"/>
</svg>
