<svg width="28" height="28" viewBox="0 0 28 28" fill="none" xmlns="http://www.w3.org/2000/svg">
<g clip-path="url(#clip0_1111_6984)">
<path d="M11.3749 22.7502C11.2598 22.7508 11.1456 22.7288 11.039 22.6852C10.9324 22.6417 10.8355 22.5775 10.7537 22.4964L2.8787 14.6214C2.79668 14.5401 2.73159 14.4433 2.68717 14.3367C2.64274 14.23 2.61987 14.1157 2.61987 14.0002C2.61987 13.8847 2.64274 13.7703 2.68717 13.6637C2.73159 13.557 2.79668 13.4603 2.8787 13.3789L10.7537 5.50391C10.8353 5.42233 10.9321 5.35761 11.0387 5.31346C11.1453 5.26931 11.2596 5.24658 11.3749 5.24658C11.4903 5.24658 11.6046 5.26931 11.7112 5.31346C11.8178 5.35761 11.9146 5.42233 11.9962 5.50391C12.0778 5.5855 12.1425 5.68235 12.1866 5.78894C12.2308 5.89554 12.2535 6.00979 12.2535 6.12516C12.2535 6.24054 12.2308 6.35479 12.1866 6.46138C12.1425 6.56797 12.0778 6.66483 11.9962 6.74641L4.7337 14.0002L11.9962 21.2539C12.0782 21.3353 12.1433 21.432 12.1877 21.5387C12.2321 21.6453 12.255 21.7597 12.255 21.8752C12.255 21.9907 12.2321 22.105 12.1877 22.2117C12.1433 22.3183 12.0782 22.4151 11.9962 22.4964C11.9144 22.5775 11.8175 22.6417 11.7109 22.6852C11.6043 22.7288 11.4901 22.7508 11.3749 22.7502Z" fill="white"/>
<path d="M24.5 14.875H3.5C3.26794 14.875 3.04538 14.7828 2.88128 14.6187C2.71719 14.4546 2.625 14.2321 2.625 14C2.625 13.7679 2.71719 13.5454 2.88128 13.3813C3.04538 13.2172 3.26794 13.125 3.5 13.125H24.5C24.7321 13.125 24.9546 13.2172 25.1187 13.3813C25.2828 13.5454 25.375 13.7679 25.375 14C25.375 14.2321 25.2828 14.4546 25.1187 14.6187C24.9546 14.7828 24.7321 14.875 24.5 14.875Z" fill="white"/>
</g>
<defs>
<clipPath id="clip0_1111_6984">
<rect width="28" height="28" fill="white"/>
</clipPath>
</defs>
</svg>
