<svg width="20" height="19" viewBox="0 0 20 19" fill="none" xmlns="http://www.w3.org/2000/svg">
<path fill-rule="evenodd" clip-rule="evenodd" d="M7.39981 18.1869C7.49351 18.2305 7.59384 18.2525 7.69505 18.2519C7.79627 18.2525 7.8966 18.2305 7.9903 18.1869C8.084 18.1434 8.16923 18.0792 8.24109 17.9981C8.31317 17.9168 8.37038 17.82 8.40943 17.7134C8.44847 17.6067 8.46857 17.4924 8.46857 17.3769C8.46857 17.2614 8.44847 17.147 8.40943 17.0404C8.37038 16.9337 8.31317 16.837 8.24109 16.7556L2.6279 10.3769H19.2309C19.4349 10.3769 19.6305 10.2847 19.7747 10.1206C19.9189 9.95652 19.9999 9.73396 19.9999 9.50189C19.9999 9.26983 19.9189 9.04727 19.7747 8.88317C19.6305 8.71908 19.4349 8.62689 19.2309 8.62689H2.62786L8.24109 2.24812C8.31279 2.16654 8.36967 2.06968 8.40848 1.96309C8.44729 1.8565 8.46726 1.74225 8.46726 1.62687C8.46726 1.51149 8.44729 1.39725 8.40848 1.29065C8.36967 1.18406 8.31279 1.0872 8.24109 1.00562C8.16938 0.924038 8.08425 0.859322 7.99057 0.815169C7.89688 0.771016 7.79646 0.748291 7.69505 0.748291C7.59365 0.748291 7.49323 0.771016 7.39954 0.815169C7.30586 0.859322 7.22073 0.924038 7.14902 1.00562L0.227487 8.88062C0.155404 8.96196 0.0981901 9.05874 0.059146 9.16537C0.0201019 9.27199 0 9.38636 0 9.50187C0 9.61738 0.0201019 9.73175 0.059146 9.83838C0.0981901 9.945 0.155404 10.0418 0.227487 10.1231L7.14902 17.9981C7.22088 18.0792 7.30611 18.1434 7.39981 18.1869Z" fill="#191919"/>
</svg>
