<svg width="50" height="50" viewBox="0 0 50 50" fill="none" xmlns="http://www.w3.org/2000/svg">
<g clip-path="url(#clip0_1_350)">
<path d="M45.7239 29.0328C45.4701 29.0328 45.2164 28.9356 45.026 28.7412C44.6519 28.36 44.6623 27.7538 45.0481 27.3841C47.3007 25.2289 47.3007 25.2289 45.4028 23.2324C44.6092 22.3984 44.459 21.035 45.0532 20.0617L48.0218 15.2026C48.04 15.1732 48.0684 15.1169 48.0529 15.0709C48.0374 15.0248 47.9804 14.9941 47.948 14.9813L42.9132 12.8441C42.2957 12.5819 41.4788 12.1432 41.5072 11.3527C41.515 11.1212 41.6367 10.8782 41.8102 10.6902C41.8102 10.5751 41.7946 10.3845 41.7338 10.1299L41.5396 9.27811C41.2185 7.83153 40.8858 6.33633 40.1052 5.65461C39.1834 4.84882 37.143 4.868 35.504 4.88335C35.4937 4.88335 35.4833 4.88335 35.473 4.88335C34.5797 4.88335 33.3472 4.48813 32.5911 3.95605C30.2918 2.34063 28.9467 1.7446 28.0702 1.95692C27.3608 2.13215 26.6733 2.94689 25.8422 4.59557C25.3023 5.6674 24.0685 6.08436 22.9085 5.5817C20.762 4.65824 19.5024 6.06006 17.6834 8.48C17.3636 8.90591 16.7565 8.99545 16.3253 8.67825C15.8942 8.36232 15.8049 7.76246 16.1247 7.33654C17.7456 5.17625 19.9684 2.22168 23.6853 3.82175C23.8899 3.91001 24.031 3.88187 24.1048 3.73862C24.8958 2.16796 25.9302 0.507776 27.599 0.0933686C29.3571 -0.333829 31.312 0.699631 33.7174 2.38924C34.1473 2.69109 34.9771 2.96096 35.4704 2.96096C35.4743 2.96096 35.4794 2.96096 35.4846 2.96096C37.556 2.94178 39.911 2.91875 41.392 4.21314C42.6465 5.30799 43.0491 7.11527 43.4375 8.86115L43.6253 9.68612C43.7547 10.2297 43.7871 10.7042 43.7236 11.0943L48.7145 13.2137C49.2854 13.4554 49.7178 13.9172 49.9016 14.4787C50.0855 15.0402 50.0052 15.6643 49.6841 16.1887L46.7155 21.0478C46.5731 21.2806 46.6236 21.7116 46.8178 21.915C49.7282 24.9783 49.3359 25.9465 46.3984 28.7578C46.2106 28.9433 45.9672 29.0328 45.7239 29.0328Z" fill="#101820"/>
<path d="M39.6507 43.4705C39.1406 43.4705 38.6331 43.3286 38.2136 43.0369L35.6231 41.2361C35.403 41.0839 34.9861 41.1094 34.7647 41.2911C32.6117 43.0561 31.1229 43.6739 29.7881 43.3503C28.2398 42.9768 27.3801 41.378 26.804 40.0274C26.6642 39.6999 26.2292 39.3725 25.925 39.3674C25.5443 39.361 25.1676 39.361 24.796 39.361C22.9926 39.3597 21.2902 39.3584 19.7793 38.6882C17.0891 37.4974 17.7558 34.745 18.196 32.9249C18.2543 32.6844 18.3112 32.4491 18.3604 32.2201C18.4744 31.7021 18.9922 31.376 19.5139 31.4834C20.0383 31.5947 20.3723 32.105 20.2597 32.623C20.2066 32.8661 20.1457 33.1155 20.0849 33.37C19.5437 35.6032 19.536 36.4768 20.573 36.9359C21.7058 37.4386 23.1376 37.4399 24.7973 37.4412C25.178 37.4412 25.5663 37.4412 25.9573 37.4476C27.0215 37.4667 28.1543 38.2546 28.5932 39.2817C29.1693 40.6349 29.7105 41.3563 30.2464 41.4855C30.8821 41.6338 31.9825 41.0775 33.5232 39.8125C34.4203 39.0758 35.8004 39.0131 36.7377 39.6628L39.3296 41.4637C39.5328 41.607 39.9018 41.5737 40.0869 41.3998C40.5841 40.9304 41.0812 40.475 41.5693 40.0274C43.2523 38.4861 44.8408 37.0306 46.0371 35.3602C46.7711 34.3331 47.0391 33.379 46.832 32.5233C46.6093 31.5998 45.795 30.748 44.477 30.0573C44.3113 29.9716 43.9579 30.0624 43.8051 30.276L39.5005 36.3284C38.8985 37.1751 37.587 37.8696 36.4361 37.5678C35.5648 37.3376 34.7013 36.9513 33.8662 36.5753C31.6563 35.584 29.5719 34.6478 27.0629 36.2427C26.0208 36.9078 24.6756 36.7172 23.9338 35.804L19.7522 30.6482C19.4168 30.2351 19.4842 29.6314 19.9036 29.3001C20.3218 28.9701 20.9316 29.0366 21.2682 29.4498L25.4498 34.6055C25.5832 34.7705 25.8395 34.7411 26.0117 34.6311C29.4101 32.4708 32.3256 33.778 34.6702 34.8307C35.469 35.1888 36.2225 35.5265 36.9358 35.7145C37.1598 35.7707 37.6906 35.5367 37.9133 35.2259L42.2179 29.1748C42.9248 28.1822 44.3463 27.8164 45.3885 28.3626C47.2139 29.318 48.3661 30.6022 48.7221 32.0769C49.0587 33.4723 48.6794 34.9905 47.6243 36.4665C46.3115 38.3007 44.6505 39.8227 42.8911 41.4343C42.4095 41.8756 41.9201 42.3232 41.4295 42.7862C40.9531 43.239 40.3006 43.4705 39.6507 43.4705Z" fill="#101820"/>
<path d="M16.8535 19.7138C15.9563 19.7138 15.1692 19.6345 14.6604 19.5232C10.5655 18.624 10.3428 14.3239 10.2586 12.7046C10.2094 11.7428 11.8963 10.1939 12.2394 10.0212C12.967 9.65415 14.07 9.21672 15.2468 9.63113C16.4871 10.0711 17.4904 11.3335 18.5999 13.8532C18.631 13.9236 18.653 13.9965 18.666 14.0694C19.3793 13.4759 20.1341 12.9438 21.0209 13.0436C21.5802 13.1088 22.0618 13.4158 22.4541 13.953C23.7163 15.6835 23.4004 16.9178 22.9137 17.6494C21.8482 19.2482 19.0272 19.7138 16.8535 19.7138ZM12.2083 12.7903C12.3961 15.8319 13.2337 17.2439 15.0811 17.6494C16.7046 18.0037 20.5212 17.7492 21.2915 16.5942C21.5116 16.2642 21.373 15.7526 20.8785 15.0747C20.7982 14.9647 20.7503 14.9378 20.7503 14.9378C20.5859 14.9673 20.002 15.461 19.6551 15.7564C18.8731 16.4202 17.9889 17.171 16.9079 17.171C16.3719 17.171 15.9369 16.7413 15.9369 16.2118C15.9369 15.6822 16.3719 15.2525 16.9079 15.2525C17.0205 15.2525 17.1616 15.1988 17.3157 15.1131C17.1008 15.0184 16.9195 14.8483 16.8185 14.6181C15.9783 12.7098 15.2494 11.6699 14.5905 11.4358C14.3678 11.3553 13.9703 11.3003 13.1211 11.7287C12.9683 11.8464 12.4012 12.4834 12.2083 12.7903Z" fill="#101820"/>
<path d="M26.5128 23.4984C26.0648 23.4984 25.6609 23.1902 25.5651 22.7387C24.7055 18.7506 25.4214 14.9289 26.1127 11.2325C26.3212 10.1172 26.5322 8.99289 26.7044 7.84943C26.8766 6.6983 27.8993 5.78635 29.0813 5.72879L29.5085 5.70577C30.5637 5.65077 31.4777 5.59833 32.3684 5.8503C35.6865 6.78655 39.2727 8.33674 40.7045 12.7353C41.7402 15.9201 42.4743 19.2648 39.151 22.08C38.7445 22.4253 38.1308 22.3793 37.7813 21.9764C37.4317 21.5747 37.4796 20.9685 37.8861 20.6231C40.1025 18.7455 39.9511 16.6914 38.8558 13.3224C37.7709 9.98926 35.2632 8.66162 31.8337 7.69467C31.2576 7.53351 30.5326 7.57188 29.6134 7.62048L29.1771 7.64351C28.9234 7.6563 28.6606 7.8878 28.623 8.12954C28.4482 9.29602 28.2333 10.442 28.021 11.5791C27.3336 15.2525 26.6837 18.7212 27.4617 22.3371C27.5731 22.8551 27.2391 23.3654 26.7147 23.4754C26.6474 23.492 26.5788 23.4984 26.5128 23.4984Z" fill="#101820"/>
<path d="M33.8378 33.5695C33.5361 33.5695 33.2371 33.5222 32.9561 33.4212C32.5017 33.2587 32.0603 33.0912 31.6304 32.8405C28.5738 31.0575 27.3905 27.7845 28.878 25.2277C30.4795 22.4752 32.8383 21.6438 35.6982 22.8256C38.9399 24.1622 40.3485 26.6346 39.8824 30.175C39.8138 30.7007 39.3218 31.0677 38.7949 31.0025C38.2628 30.9347 37.8874 30.4525 37.9573 29.9281C38.3094 27.2434 37.3825 25.5999 34.9499 24.5971C32.9911 23.7888 31.6809 24.2646 30.5624 26.1844C29.6199 27.8049 30.5041 29.9563 32.6182 31.1892C32.8772 31.3402 33.1814 31.4617 33.619 31.6177C33.8922 31.7162 34.3505 31.5896 34.5382 31.3594L35.3512 30.3604C35.5428 30.1251 35.592 29.6275 35.4431 29.4088C34.8864 28.5902 34.4074 28.1592 34.0177 28.1285C33.6255 28.0965 33.0649 28.4508 32.4253 29.1249C32.0564 29.5124 31.4427 29.5303 31.053 29.1697C30.662 28.8077 30.6413 28.2001 31.0077 27.8139C32.1056 26.6563 33.1439 26.1396 34.1744 26.2164C35.5376 26.3251 36.4711 27.48 37.0549 28.3396C37.6764 29.2541 37.5922 30.67 36.8633 31.564L36.0516 32.5604C35.5312 33.2012 34.6754 33.5695 33.8378 33.5695Z" fill="#101820"/>
<path d="M15.1641 31.0115C11.719 31.0115 9.26183 29.3321 8.05135 26.1473C7.68109 25.174 7.96979 23.8629 8.39313 23.0559C9.95834 20.0783 8.58086 17.7249 6.98328 14.9992C6.0848 13.4657 5.15526 11.8797 4.73321 10.0967C4.5183 9.19114 4.67754 7.7535 5.3145 6.91446C6.37739 5.51647 7.94908 5.22229 9.62692 6.10355C10.0451 6.32354 10.638 6.38238 10.9203 6.23401L12.5631 5.3745C13.551 4.85649 14.931 5.01125 15.7777 5.73391L18.4783 8.03617C18.6311 8.16535 18.7593 8.25872 18.8564 8.32395C19.3017 8.23442 19.9024 8.34442 20.6559 8.64627L26.4791 10.9741C26.9763 11.1724 27.2158 11.7313 27.0151 12.2237C26.8145 12.7149 26.2526 12.9515 25.7503 12.7532L19.9257 10.4254C19.6616 10.318 19.4467 10.2591 19.3108 10.2323C19.2396 10.2655 19.1671 10.2911 19.0946 10.3052C18.8887 10.3474 18.345 10.4574 17.2083 9.48787L14.5077 7.18561C14.2708 6.9848 13.749 6.92597 13.4707 7.0705L11.8304 7.93001C10.8387 8.44802 9.54924 8.23698 8.71291 7.79699C7.6785 7.25212 7.20078 7.62688 6.86806 8.06559C6.64279 8.36232 6.51462 9.19625 6.62467 9.65926C6.98069 11.166 7.7989 12.5614 8.66501 14.0387C10.3105 16.8474 12.1735 20.031 10.1176 23.941C9.86643 24.4206 9.74861 25.1509 9.8716 25.4732C10.8257 27.9827 12.5515 29.13 15.2961 29.0916C15.8839 29.0763 16.2736 29.5073 16.2813 30.0368C16.2891 30.5664 15.8606 31.0025 15.3246 31.0102C15.2702 31.0115 15.2171 31.0115 15.1641 31.0115Z" fill="#101820"/>
<path d="M14.1607 50C13.6713 50 13.1858 49.812 12.7936 49.4615L4.07811 41.6748C3.61333 41.2591 3.357 40.6835 3.37383 40.0926C3.39066 39.5042 3.67677 38.9428 4.16226 38.5552L14.9983 29.8578C15.7984 29.2183 17.1448 28.9509 18.1288 29.2323L18.3488 29.2963C18.7075 29.4024 19.3535 29.2617 19.6176 29.02C20.8319 27.906 21.9893 26.6589 23.1092 25.4515C25.6998 22.6581 28.3797 19.7713 32.125 18.0638C33.0559 17.6404 34.4748 17.6532 35.3564 18.0919C38.8998 19.857 40.4935 23.0635 42.0341 26.1639C42.3448 26.7881 42.6543 27.4123 42.9805 28.0224C43.2304 28.4918 43.0491 29.0712 42.5753 29.3193C42.1015 29.5636 41.515 29.3858 41.2625 28.919C40.9285 28.2922 40.61 27.6514 40.2916 27.0106C38.8273 24.0637 37.4447 21.2818 34.4825 19.8058C34.1252 19.6281 33.3303 19.6281 32.9393 19.8071C29.5474 21.3522 27.1148 23.9729 24.5411 26.7484C23.3953 27.9827 22.212 29.2592 20.9394 30.4257C20.1756 31.1266 18.8266 31.4335 17.7973 31.1355L17.5876 31.0741C17.2083 30.9654 16.5299 31.0984 16.2218 31.3466L5.38568 40.044L4.72931 40.9636L5.38051 40.2525L14.096 48.0392L16.5338 43.8479L19.6616 38.2853C19.9231 37.8223 20.5135 37.6548 20.9821 37.9118C21.4508 38.1689 21.6204 38.7535 21.3602 39.2165L15.8839 48.9563C15.5731 49.5076 15.0579 49.8785 14.4688 49.9757C14.3665 49.9911 14.263 50 14.1607 50Z" fill="#101820"/>
<path d="M34.9977 17.0099C34.076 17.0099 32.9535 16.6287 31.6433 15.869C31.0012 15.4968 30.3668 15.1757 29.7376 14.8573C28.9091 14.4377 28.0533 14.0041 27.1924 13.4631C26.7406 13.1779 26.6072 12.5857 26.8946 12.138C27.1833 11.6904 27.784 11.5599 28.2359 11.8439C29.0204 12.3376 29.7998 12.7315 30.6245 13.1497C31.286 13.4849 31.9528 13.8225 32.6273 14.2139C34.0242 15.0235 34.999 15.2052 35.3162 15.0312C35.4742 14.9442 35.5751 14.6117 35.5855 14.141C35.6023 13.4196 35.311 12.7622 34.766 12.2928C34.0138 11.6456 32.8448 11.4077 31.4712 11.6251C30.943 11.7032 30.4445 11.3527 30.3591 10.8283C30.2749 10.3052 30.6348 9.81403 31.1656 9.72961C33.1153 9.42136 34.8489 9.81786 36.0425 10.8475C37.0148 11.6853 37.5559 12.9003 37.5275 14.1832C37.4938 15.7117 36.8206 16.3985 36.2626 16.7067C35.8949 16.9088 35.4729 17.0099 34.9977 17.0099Z" fill="#101820"/>
<path d="M4.90278 19.5449C4.69434 19.5449 4.48461 19.4797 4.30854 19.3428L1.33348 17.0649C0.664152 16.5533 -0.08544 15.6567 0.00777358 14.8151C0.104871 13.93 1.10303 13.2713 1.92901 12.9771L5.37532 11.753C5.87893 11.5714 6.43562 11.8311 6.61687 12.3312C6.79942 12.8287 6.53661 13.3787 6.03299 13.5578L2.58668 14.7831C2.35235 14.8662 2.16981 14.9737 2.04682 15.0632C2.1478 15.2039 2.31092 15.3855 2.52324 15.5479L5.49831 17.8285C5.92166 18.1533 5.99804 18.7558 5.6692 19.174C5.4776 19.4183 5.19148 19.5449 4.90278 19.5449Z" fill="#101820"/>
<path d="M8.10562 25.8723C8.03312 25.8723 7.95933 25.8646 7.88424 25.8467C5.01016 25.1842 3.43588 23.327 3.6728 20.8789C3.7699 19.8685 4.8069 19.2993 5.80895 18.7494C6.14037 18.5677 6.47309 18.3887 6.73979 18.2007C7.17478 17.8911 7.78326 17.9922 8.09397 18.4232C8.40598 18.8542 8.305 19.4528 7.86871 19.7611C7.54893 19.9875 7.15148 20.2075 6.75273 20.4274C6.38247 20.6308 5.77917 20.9608 5.59792 21.1578C5.50212 22.5916 6.41872 23.5393 8.32442 23.9793C8.84615 24.0996 9.17111 24.6163 9.04941 25.1317C8.94584 25.573 8.54709 25.8723 8.10562 25.8723Z" fill="#101820"/>
<path d="M18.5106 23.4984C18.1546 23.4984 17.8115 23.304 17.6419 22.9676C17.4024 22.4944 17.5966 21.9175 18.0756 21.6809L25.2802 18.1226C25.7592 17.886 26.3431 18.0779 26.5826 18.5524C26.8221 19.0256 26.6279 19.6025 26.1476 19.8391L18.9443 23.3974C18.8045 23.4664 18.6569 23.4984 18.5106 23.4984Z" fill="#101820"/>
<path d="M16.9079 30.6162C16.7422 30.6162 16.5726 30.574 16.4198 30.4858C15.9563 30.2185 15.7997 29.6314 16.0703 29.1735C17.5927 26.5962 18.0355 24.968 16.2308 23.226C15.8476 22.8563 15.8411 22.2488 16.2152 21.8689C16.5894 21.4916 17.2056 21.4827 17.5889 21.8536C20.8073 24.9616 18.8175 28.3293 17.7494 30.1404C17.5668 30.4448 17.2419 30.6162 16.9079 30.6162Z" fill="#101820"/>
</g>
<defs>
<clipPath id="clip0_1_350">
<rect width="50" height="50" fill="white"/>
</clipPath>
</defs>
</svg>
