<svg width="20" height="20" viewBox="0 0 20 20" fill="none" xmlns="http://www.w3.org/2000/svg">
<path d="M15.8332 4.16666H10.8332V1.66666H9.1665V4.16666H4.1665C2.78817 4.16666 1.6665 5.28832 1.6665 6.66666V15C1.6665 15.9192 2.414 16.6667 3.33317 16.6667H16.6665C17.5857 16.6667 18.3332 15.9192 18.3332 15V6.66666C18.3332 5.28832 17.2115 4.16666 15.8332 4.16666ZM4.1665 5.83332H15.8332C16.0542 5.83332 16.2661 5.92112 16.4224 6.0774C16.5787 6.23368 16.6665 6.44564 16.6665 6.66666L16.6673 9.26666C15.9207 9.45666 15.4432 9.87832 15.0707 10.21C14.6482 10.585 14.369 10.8333 13.7473 10.8333C13.1265 10.8333 12.8473 10.585 12.4248 10.2108C11.929 9.76999 11.2507 9.16666 9.99567 9.16666C8.7415 9.16666 8.06317 9.76999 7.56734 10.2108C7.14484 10.5858 6.8665 10.8333 6.24567 10.8333C5.6265 10.8333 5.34817 10.5858 4.92734 10.2108C4.55484 9.87916 4.079 9.45666 3.33317 9.26666V6.66666C3.33317 6.44564 3.42097 6.23368 3.57725 6.0774C3.73353 5.92112 3.94549 5.83332 4.1665 5.83332ZM3.33317 15V11.0717C3.49234 11.1742 3.64484 11.3 3.819 11.4558C4.31484 11.8967 4.99234 12.5 6.24567 12.5C7.49984 12.5 8.17817 11.8967 8.674 11.4558C9.0965 11.0808 9.37484 10.8333 9.99567 10.8333C10.6165 10.8333 10.8957 11.0817 11.3182 11.4558C11.814 11.8967 12.4923 12.5 13.7473 12.5C15.0023 12.5 15.6815 11.8967 16.1773 11.4558C16.3532 11.2992 16.5065 11.1725 16.6673 11.0692L16.6682 15H3.33317Z" fill="#D9D9D9"/>
</svg>
