<svg width="20" height="20" viewBox="0 0 20 20" fill="none" xmlns="http://www.w3.org/2000/svg">
<path d="M9.99984 11.6667C11.8382 11.6667 13.3332 10.1717 13.3332 8.33333C13.3332 6.495 11.8382 5 9.99984 5C8.1615 5 6.6665 6.495 6.6665 8.33333C6.6665 10.1717 8.1615 11.6667 9.99984 11.6667ZM9.99984 6.66667C10.919 6.66667 11.6665 7.41417 11.6665 8.33333C11.6665 9.2525 10.919 10 9.99984 10C9.08067 10 8.33317 9.2525 8.33317 8.33333C8.33317 7.41417 9.08067 6.66667 9.99984 6.66667Z" fill="#D9D9D9"/>
<path d="M9.5169 18.1783C9.65794 18.279 9.82692 18.3332 10.0002 18.3332C10.1735 18.3332 10.3425 18.279 10.4836 18.1783C10.7369 17.9992 16.6911 13.7 16.6669 8.33332C16.6669 4.65749 13.6761 1.66666 10.0002 1.66666C6.3244 1.66666 3.33357 4.65749 3.33357 8.32916C3.3094 13.7 9.26357 17.9992 9.5169 18.1783ZM10.0002 3.33332C12.7577 3.33332 15.0002 5.57582 15.0002 8.33749C15.0177 12.0358 11.3436 15.3567 10.0002 16.4458C8.65774 15.3558 4.98274 12.0342 5.00024 8.33332C5.00024 5.57582 7.24274 3.33332 10.0002 3.33332Z" fill="#D9D9D9"/>
</svg>
