<svg width="16" height="16" viewBox="0 0 16 16" fill="none" xmlns="http://www.w3.org/2000/svg">
<path d="M11.3315 10C10.2642 10 9.70083 9.54934 9.24816 9.18734C8.87016 8.88534 8.59683 8.66668 7.99616 8.66668C7.3975 8.66668 7.13816 8.87401 6.74683 9.18668C6.29416 9.54934 5.73083 10 4.6635 10C3.59616 10 3.03416 9.54934 2.5815 9.18668C2.19016 8.87401 1.9315 8.66668 1.3335 8.66668V12C1.3335 12.7353 1.9315 13.3333 2.66683 13.3333H13.3335C14.0688 13.3333 14.6668 12.7353 14.6668 12V8.66668C14.0675 8.66668 13.8082 8.87401 13.4162 9.18734C12.9628 9.54934 12.3995 10 11.3315 10ZM12.6668 3.33334H8.66683V1.33334H7.3335V3.33334H3.3335C2.23083 3.33334 1.3335 4.23068 1.3335 5.33334V7.33334C2.40016 7.33334 2.96216 7.78401 3.41483 8.14668C3.80616 8.45934 4.06483 8.66668 4.6635 8.66668C5.26283 8.66668 5.5215 8.45934 5.9135 8.14601C6.36616 7.78401 6.9295 7.33334 7.99616 7.33334C9.06416 7.33334 9.6275 7.78401 10.0808 8.14601C10.4728 8.45934 10.7322 8.66668 11.3315 8.66668C11.9315 8.66668 12.2055 8.44801 12.5835 8.14601C13.0362 7.78401 13.5995 7.33334 14.6668 7.33334V5.33334C14.6668 4.23068 13.7695 3.33334 12.6668 3.33334Z" fill="white"/>
</svg>
