<svg width="50" height="50" viewBox="0 0 50 50" fill="none" xmlns="http://www.w3.org/2000/svg">
<g clip-path="url(#clip0_1_343)">
<path d="M32.0313 6.25C31.8995 6.24963 31.7699 6.28298 31.6547 6.34687L0.404712 23.5344C0.363626 23.5606 0.325166 23.5906 0.289868 23.6242C0.264642 23.6422 0.240389 23.6615 0.217212 23.682C0.151825 23.7486 0.0989058 23.8264 0.0609619 23.9117C0.0570557 23.9211 0.0570557 23.932 0.0531494 23.9422C0.0232197 24.0218 0.00633578 24.1057 0.00314941 24.1906C0.00314941 24.2008 -0.00231934 24.2086 -0.00231934 24.2187V42.9687C-0.00231934 43.1759 0.0799907 43.3747 0.226503 43.5212C0.373016 43.6677 0.57173 43.75 0.778931 43.75H49.2188C49.426 43.75 49.6247 43.6677 49.7712 43.5212C49.9177 43.3747 50 43.1759 50 42.9687V24.2187C49.9946 19.4548 48.0998 14.8875 44.7312 11.5189C41.3625 8.15023 36.7952 6.25538 32.0313 6.25V6.25ZM32.2297 7.8125C36.4098 7.86815 40.4114 9.51528 43.4194 12.4184C46.4274 15.3214 48.2156 19.262 48.4196 23.4375H46.6922C46.364 22.3325 45.819 21.3039 45.0891 20.4118C44.3591 19.5197 43.4588 18.7819 42.4406 18.2414C42.006 16.2739 40.9111 14.5145 39.3378 13.2557C37.7646 11.9968 35.8079 11.3144 33.793 11.3219C33.5446 11.3219 33.2899 11.3344 33.0242 11.3602L33.0156 11.343C32.5785 10.2461 31.8878 9.26836 31 8.48984L32.2297 7.8125ZM40.6594 20.8594L39.5141 20.3172L39.3274 19.1031C39.1072 17.7964 38.4298 16.6105 37.416 15.7571C36.4022 14.9038 35.1181 14.4385 33.793 14.4445C33.5097 14.4489 33.227 14.4727 32.9469 14.5156L31.1641 14.7773L30.3789 13.2148C29.7242 12.0162 28.6602 11.0931 27.3813 10.6141L29.6797 9.46484C30.636 10.0289 31.0539 10.8828 31.6117 12.0227L31.8719 12.5492C31.9462 12.6969 32.0653 12.8173 32.2123 12.8929C32.3593 12.9686 32.5265 12.9957 32.6899 12.9703C33.0546 12.911 33.4235 12.8802 33.793 12.8781C35.5054 12.8663 37.1665 13.4625 38.4806 14.5607C39.7946 15.6588 40.6763 17.1877 40.9688 18.875C40.9881 19.0012 41.0381 19.1208 41.1144 19.2232C41.1907 19.3256 41.2909 19.4078 41.4063 19.4625C43.0963 20.2602 44.4077 21.6866 45.061 23.4375H43.2891C42.7347 22.3025 41.8059 21.3934 40.6594 20.8633V20.8594ZM25.1156 11.7266C25.8944 11.7321 26.6588 11.9368 27.336 12.3214C28.0132 12.7059 28.5807 13.2575 28.9844 13.9234L30.0219 15.9875C30.0957 16.1342 30.2138 16.2539 30.3596 16.3297C30.5053 16.4054 30.6711 16.4333 30.8336 16.4094L33.1649 16.0664C33.3718 16.0343 33.5805 16.0158 33.7899 16.0109C34.7421 16.0028 35.6661 16.3335 36.397 16.9439C37.1279 17.5543 37.618 18.4046 37.7797 19.343L38.0297 20.9687C38.0491 21.095 38.0991 21.2145 38.1753 21.317C38.2516 21.4194 38.3518 21.5015 38.4672 21.5562L39.9883 22.2758C40.555 22.5446 41.0508 22.9425 41.436 23.4375H3.82346L25.1156 11.7266ZM1.56252 34.375H45.3125V35.9375H1.56252V34.375ZM45.3125 32.8125H1.56252V28.125H45.3125V32.8125ZM1.56252 42.1875V37.5H45.3125V42.1875H1.56252ZM48.4375 42.1875H46.875V27.3437C46.875 27.1365 46.7927 26.9378 46.6462 26.7913C46.4997 26.6448 46.301 26.5625 46.0938 26.5625H1.56252V25H48.4375V42.1875Z" fill="#101820"/>
<path d="M28.125 15.7359V14.0625C28.125 13.8553 28.0427 13.6566 27.8962 13.5101C27.7497 13.3636 27.551 13.2812 27.3438 13.2812C27.1366 13.2812 26.9378 13.3636 26.7913 13.5101C26.6448 13.6566 26.5625 13.8553 26.5625 14.0625V15.7359C25.8261 15.9261 25.1842 16.3783 24.7573 17.0078C24.3305 17.6373 24.1478 18.4009 24.2437 19.1555C24.3395 19.91 24.7072 20.6037 25.2779 21.1065C25.8487 21.6093 26.5832 21.8867 27.3438 21.8867C28.1044 21.8867 28.8389 21.6093 29.4096 21.1065C29.9803 20.6037 30.348 19.91 30.4439 19.1555C30.5397 18.4009 30.357 17.6373 29.9302 17.0078C29.5033 16.3783 28.8615 15.9261 28.125 15.7359ZM27.3438 20.3125C27.0003 20.3134 26.6663 20.2007 26.3935 19.9921C26.1207 19.7835 25.9245 19.4906 25.8354 19.1589C25.7463 18.8272 25.7693 18.4754 25.9008 18.1582C26.0323 17.841 26.2649 17.5761 26.5625 17.4047V17.9688C26.5625 18.176 26.6448 18.3747 26.7913 18.5212C26.9378 18.6677 27.1366 18.75 27.3438 18.75C27.551 18.75 27.7497 18.6677 27.8962 18.5212C28.0427 18.3747 28.125 18.176 28.125 17.9688V17.4047C28.4226 17.5761 28.6553 17.841 28.7868 18.1582C28.9182 18.4754 28.9412 18.8272 28.8521 19.1589C28.763 19.4906 28.5668 19.7835 28.294 19.9921C28.0212 20.2007 27.6872 20.3134 27.3438 20.3125Z" fill="#101820"/>
</g>
<defs>
<clipPath id="clip0_1_343">
<rect width="50" height="50" fill="white"/>
</clipPath>
</defs>
</svg>
