<svg width="48" height="48" viewBox="0 0 48 48" fill="none" xmlns="http://www.w3.org/2000/svg">
<path d="M16.5859 32.5861L19.4139 35.4141L23.9999 30.8281L28.5859 35.4141L31.4139 32.5861L26.8279 28.0001L31.4139 23.4141L28.5859 20.5861L23.9999 25.1721L19.4139 20.5861L16.5859 23.4141L21.1719 28.0001L16.5859 32.5861Z" fill="#D9D9D9"/>
<path d="M38 8H34V4H30V8H18V4H14V8H10C7.794 8 6 9.794 6 12V40C6 42.206 7.794 44 10 44H38C40.206 44 42 42.206 42 40V12C42 9.794 40.206 8 38 8ZM38.004 40H10V16H38L38.004 40Z" fill="#D9D9D9"/>
</svg>
