<svg width="24" height="24" viewBox="0 0 24 24" fill="none" xmlns="http://www.w3.org/2000/svg">
<g opacity="0.5">
<rect width="24" height="24" rx="12" fill="#616161"/>
<path fill-rule="evenodd" clip-rule="evenodd" d="M17.7071 7.7071C18.0976 7.31657 18.0976 6.68341 17.7071 6.29289C17.3166 5.90237 16.6834 5.90237 16.2929 6.2929L12 10.5859L7.70711 6.2929C7.31659 5.90237 6.68343 5.90237 6.2929 6.29289C5.90237 6.68341 5.90237 7.31657 6.29289 7.7071L10.5858 12.0001L6.29289 16.2931C5.90237 16.6836 5.90237 17.3168 6.2929 17.7073C6.68343 18.0978 7.31659 18.0978 7.70711 17.7073L12 13.4143L16.2929 17.7073C16.6834 18.0978 17.3166 18.0978 17.7071 17.7073C18.0976 17.3168 18.0976 16.6836 17.7071 16.2931L13.4142 12.0001L17.7071 7.7071Z" fill="#F5F5F5"/>
</g>
</svg>
