<svg width="123" height="18" viewBox="0 0 123 18" fill="none" xmlns="http://www.w3.org/2000/svg">
<path d="M8.82939 18C7.05918 18 5.50924 17.6759 4.18072 17.0288C2.8522 16.3818 1.82386 15.4791 1.09454 14.3242C0.365228 13.1682 0 11.8284 0 10.3038C0 8.77918 0.265932 7.41089 0.798937 6.14759C1.33194 4.88544 2.0818 3.7956 3.04966 2.87694C4.01637 1.95942 5.16456 1.2496 6.49307 0.749763C7.82159 0.249922 9.28022 0 10.8701 0C12.46 0 13.9939 0.295569 15.2722 0.885565C16.5505 1.47556 17.5013 2.32803 18.1256 3.44297L13.9449 6.71362C13.5842 6.07456 13.1163 5.57814 12.5433 5.22551C11.9692 4.87288 11.289 4.69714 10.5026 4.69714C9.81437 4.69714 9.18663 4.82381 8.62167 5.0783C8.05557 5.33278 7.56822 5.6934 7.15847 6.16015C6.74873 6.62689 6.42916 7.18037 6.19975 7.81944C5.97034 8.4585 5.85507 9.16376 5.85507 9.93406C5.85507 10.6062 6.0023 11.1962 6.29791 11.7041C6.59351 12.2119 7.00668 12.6056 7.53968 12.884C8.07269 13.1625 8.69129 13.3017 9.39664 13.3017C10.102 13.3017 10.7286 13.1465 11.3769 12.835C12.024 12.5234 12.6437 12.0156 13.2338 11.3103L16.6521 14.581C15.6032 15.8603 14.4345 16.7493 13.1471 17.2491C11.8596 17.7489 10.4216 17.9989 8.83053 17.9989L8.82939 18Z" fill="#191919"/>
<path d="M23.1421 17.6075H17.3384L20.7818 0.394897H26.5855L23.1421 17.6075ZM30.151 11.2636H24.0278L24.9865 6.49342H31.1098L30.151 11.2636ZM31.9464 0.394897H37.7501L34.3067 17.6075H28.503L31.9464 0.394897Z" fill="#191919"/>
<path d="M45.792 18.0001C44.0047 18.0001 42.513 17.66 41.3157 16.9799C40.1184 16.2997 39.2704 15.3491 38.7705 14.1269C38.2706 12.9058 38.1839 11.4839 38.5126 9.86112L40.4061 0.393799H46.2098L44.3403 9.76297C44.225 10.3701 44.1839 10.8939 44.217 11.3367C44.2501 11.7795 44.3608 12.1481 44.5491 12.4436C44.7374 12.7392 44.9954 12.956 45.3241 13.0952C45.6517 13.2345 46.0454 13.3041 46.5042 13.3041C47.0612 13.3041 47.5406 13.19 47.9435 12.9594C48.3452 12.7301 48.6808 12.3535 48.9513 11.8285C49.2218 11.3036 49.4386 10.6154 49.603 9.76297L51.4725 0.393799H57.178L55.2355 10.1065C54.7276 12.6799 53.6855 14.6393 52.1116 15.9836C50.5377 17.3279 48.4308 18.0001 45.7909 18.0001H45.792Z" fill="#191919"/>
<path d="M65.0733 18.0001C63.2859 18.0001 61.7942 17.66 60.597 16.9799C59.3997 16.2997 58.5517 15.3491 58.0518 14.1269C57.5519 12.9058 57.4651 11.4839 57.7938 9.86112L59.6873 0.393799H65.491L63.6215 9.76297C63.5062 10.3701 63.4651 10.8939 63.4982 11.3367C63.5313 11.7795 63.642 12.1481 63.8304 12.4436C64.0187 12.7392 64.2766 12.956 64.6053 13.0952C64.9329 13.2345 65.3267 13.3041 65.7855 13.3041C66.3425 13.3041 66.8218 13.19 67.2247 12.9594C67.6265 12.7301 67.962 12.3535 68.2325 11.8285C68.503 11.3036 68.7199 10.6154 68.8842 9.76297L70.7537 0.393799H76.4593L74.5167 10.1065C74.0077 12.6799 72.9668 14.6393 71.3929 15.9836C69.819 17.3279 67.7121 18.0001 65.0721 18.0001H65.0733Z" fill="#191919"/>
<path d="M75.6729 17.6075L79.1163 0.394897H84.8218L81.3784 17.6075H75.6729ZM81.5998 14.0664L82.4604 7.55016L90.1336 0.394897H96.7979L87.9685 8.41176L84.0332 11.8057L81.5987 14.0675L81.5998 14.0664ZM87.3054 17.6075L83.1486 10.919L87.4526 7.03321L93.7733 17.6063H87.3054V17.6075Z" fill="#191919"/>
<path d="M91.757 17.6075L102.725 0.394897H108.431L112.513 17.6075H106.734L103.954 3.07441H106.217L97.8791 17.6075H91.7559H91.757ZM96.8234 14.6073L99.1346 10.4271H107.053L107.692 14.6073H96.8223H96.8234Z" fill="#191919"/>
<path d="M116.276 17.8529C115.375 17.8529 114.636 17.5904 114.063 17.0666C113.489 16.5416 113.203 15.9026 113.203 15.1483C113.203 14.2307 113.53 13.4764 114.186 12.8864C114.842 12.2964 115.653 12.0008 116.621 12.0008C117.539 12.0008 118.28 12.2553 118.847 12.7632C119.413 13.2721 119.695 13.9032 119.695 14.6564C119.695 15.2464 119.543 15.7839 119.239 16.2666C118.936 16.7505 118.53 17.1362 118.021 17.4226C117.513 17.7091 116.931 17.8529 116.275 17.8529H116.276ZM115.022 11.0171L116.03 0.393799H122.67L119.448 11.0171H115.021H115.022Z" fill="#191919"/>
</svg>
