<svg width="50" height="50" viewBox="0 0 50 50" fill="none" xmlns="http://www.w3.org/2000/svg">
<g clip-path="url(#clip0_1_392)">
<path d="M48.9051 34.4929V31.258V27.6292C48.9051 26.0484 47.6191 24.7622 46.0381 24.7622H42.8583L40.5959 15.2885H42.3145C42.6372 15.2885 42.8989 15.0268 42.8989 14.7041C42.8989 12.364 40.995 10.4602 38.655 10.4602H29.6315V9.89007C29.6315 8.54451 28.5368 7.44975 27.1912 7.44975H7.02515C5.67958 7.44975 4.58483 8.54451 4.58483 9.89007V10.4602H2.68692C2.36423 10.4602 2.10255 10.7219 2.10255 11.0445V34.1703C0.929144 34.2561 0 35.2358 0 36.4308C0 37.6818 1.01773 38.6996 2.26887 38.6996H5.23675C5.9969 40.936 8.1157 42.5503 10.6058 42.5503C13.0959 42.5503 15.2147 40.936 15.9749 38.6996H25.5025C26.2626 40.936 28.3814 42.5503 30.8715 42.5503C33.3618 42.5503 35.4806 40.936 36.2406 38.6996H47.7313C48.9823 38.6996 50.0001 37.6819 50.0001 36.4308C50 35.6097 49.5602 34.8913 48.9051 34.4929ZM47.7313 34.1619H45.7542V32.6734C45.7542 32.2151 46.1269 31.8424 46.5852 31.8424H47.7363V34.1619H47.7313ZM40.9284 21.7124L41.6568 24.7622H32.3634V17.2981H39.8743L40.9284 21.7124ZM39.5951 16.1294H31.779C31.4563 16.1294 31.1946 16.391 31.1946 16.7137V25.3466C31.1946 25.6693 31.4563 25.931 31.779 25.931H42.397H46.0381C46.9745 25.931 47.7364 26.6929 47.7364 27.6292V30.6737H46.5853C45.4826 30.6737 44.5856 31.5708 44.5856 32.6734V34.1619H35.8465C34.8823 32.4041 33.014 31.2095 30.8715 31.2095C30.3194 31.2095 29.786 31.2903 29.281 31.4382V15.2885H39.3943L39.5951 16.1294ZM28.4629 9.89019V10.4602H21.3232V8.6186H27.1913C27.8924 8.6186 28.4629 9.18906 28.4629 9.89019ZM13.0289 10.4602V8.6186H20.1544V10.4602H13.0289ZM5.75357 9.89019C5.75357 9.18906 6.32403 8.6186 7.02515 8.6186H11.8603V10.4602H5.75368V9.89019H5.75357ZM38.655 11.6289C40.1508 11.6289 41.4008 12.7025 41.6744 14.1197H39.8555H28.6965C28.3738 14.1197 28.1122 14.3814 28.1122 14.7041V31.9287C27.1807 32.4499 26.4101 33.2255 25.8965 34.1619H15.5806C14.6164 32.4041 12.7481 31.2095 10.6057 31.2095C8.46328 31.2095 6.59494 32.4041 5.63073 34.1619H3.27129V11.6289H38.655ZM2.26887 37.5309C1.66229 37.5309 1.16873 37.0373 1.16873 36.4308C1.16873 35.8242 1.66229 35.3306 2.26887 35.3306H5.15237C5.01212 35.8235 4.93545 36.3427 4.93545 36.8799C4.93545 37.1001 4.94936 37.3171 4.97402 37.5309H2.26887ZM10.6058 41.3815C8.12364 41.3815 6.10419 39.3622 6.10419 36.8799C6.10419 34.3976 8.12364 32.3783 10.6058 32.3783C13.088 32.3783 15.1074 34.3977 15.1074 36.8799C15.1074 39.3621 13.088 41.3815 10.6058 41.3815ZM16.2376 37.5309C16.2621 37.3171 16.2762 37.1002 16.2762 36.8799C16.2762 36.3427 16.1995 35.8235 16.0592 35.3306H25.4181C25.2779 35.8235 25.2012 36.3427 25.2012 36.8799C25.2012 37.1001 25.2151 37.3171 25.2398 37.5309H16.2376ZM30.8715 41.3815C28.3894 41.3815 26.3699 39.3622 26.3699 36.8799C26.3699 34.3976 28.3893 32.3783 30.8715 32.3783C33.3538 32.3783 35.3732 34.3977 35.3732 36.8799C35.3732 39.3621 33.3537 41.3815 30.8715 41.3815ZM47.7313 37.5309H36.5033C36.5279 37.3171 36.5419 37.1002 36.5419 36.8799C36.5419 36.3427 36.4652 35.8235 36.325 35.3306H45.17H47.7314C48.3379 35.3306 48.8315 35.8242 48.8315 36.4308C48.8313 37.0373 48.3378 37.5309 47.7313 37.5309Z" fill="black"/>
<path d="M30.8715 34.4566C29.5353 34.4566 28.4484 35.5437 28.4484 36.8799C28.4484 38.2161 29.5354 39.3032 30.8715 39.3032C32.2076 39.3032 33.2948 38.2161 33.2948 36.8799C33.2948 35.5437 32.2076 34.4566 30.8715 34.4566ZM30.8715 38.1344C30.1798 38.1344 29.6171 37.5717 29.6171 36.8799C29.6171 36.1881 30.1798 35.6254 30.8715 35.6254C31.5632 35.6254 32.126 36.1881 32.126 36.8799C32.126 37.5717 31.5632 38.1344 30.8715 38.1344Z" fill="black"/>
<path d="M10.6058 34.4566C9.26954 34.4566 8.1825 35.5437 8.1825 36.8799C8.1825 38.2161 9.26954 39.3032 10.6058 39.3032C11.942 39.3032 13.0289 38.2161 13.0289 36.8799C13.0289 35.5437 11.942 34.4566 10.6058 34.4566ZM10.6058 38.1344C9.91409 38.1344 9.35123 37.5717 9.35123 36.8799C9.35123 36.1881 9.91398 35.6254 10.6058 35.6254C11.2975 35.6254 11.8602 36.1881 11.8602 36.8799C11.8602 37.5717 11.2975 38.1344 10.6058 38.1344Z" fill="black"/>
<path d="M7.60158 29.3059H8.48725H13.1731H14.349H19.0348H20.1273H24.8131H25.7857C26.1084 29.3059 26.3701 29.0442 26.3701 28.7215V15.0755C26.3701 14.9415 26.3232 14.8196 26.2472 14.7209C26.1681 14.4921 25.9529 14.3266 25.6972 14.3266H22.0781H18.459H14.8399H11.2207H7.60158C7.27889 14.3266 7.01721 14.5883 7.01721 14.911V15.0755V17.2089V28.7214C7.01721 29.0442 7.27889 29.3059 7.60158 29.3059ZM25.1127 15.6599V17.2089C25.1127 17.8845 24.5631 18.4341 23.8876 18.4341C23.212 18.4341 22.6624 17.8845 22.6624 17.2089V15.6599H25.1127ZM21.4936 15.6599V17.2089C21.4936 17.8845 20.944 18.4341 20.2684 18.4341C19.5929 18.4341 19.0433 17.8845 19.0433 17.2089V15.6599H21.4936ZM17.8744 15.6599V17.2089C17.8744 17.8845 17.3248 18.4341 16.6492 18.4341C15.9737 18.4341 15.424 17.8845 15.424 17.2089V15.6599H17.8744ZM14.2554 15.6599V17.2089C14.2554 17.8845 13.7058 18.4341 13.0302 18.4341C12.3547 18.4341 11.8051 17.8845 11.8051 17.2089V15.6599H14.2554ZM8.18595 15.6599H10.6363V17.2089C10.6363 17.8845 10.0867 18.4341 9.41113 18.4341C8.7356 18.4341 8.18595 17.8845 8.18595 17.2089V15.6599ZM9.41113 19.603C10.1339 19.603 10.7814 19.2797 11.2207 18.7716C11.66 19.2797 12.3075 19.603 13.0302 19.603C13.753 19.603 14.4005 19.2797 14.8398 18.7716C15.2791 19.2797 15.9266 19.603 16.6493 19.603C17.3721 19.603 18.0196 19.2797 18.4589 18.7716C18.8982 19.2797 19.5457 19.603 20.2684 19.603C20.9912 19.603 21.6387 19.2797 22.078 18.7716C22.5173 19.2797 23.1648 19.603 23.8876 19.603C24.3726 19.603 24.8237 19.457 25.2012 19.208V25.2254C25.096 24.9463 24.9519 24.6819 24.7682 24.445L24.76 24.4345C24.6604 24.3062 24.6056 24.1461 24.6056 23.9836V22.638C24.6056 22.3154 24.3439 22.0537 24.0213 22.0537H20.9188C20.5962 22.0537 20.3345 22.3154 20.3345 22.638V23.9798C20.3345 24.1415 20.2801 24.3012 20.1811 24.4294L20.1675 24.447C19.8603 24.8451 19.6593 25.3181 19.5808 25.8127C19.5013 25.3169 19.2989 24.8431 18.9901 24.445L18.9819 24.4345C18.8823 24.3062 18.8275 24.1459 18.8275 23.9836V22.638C18.8275 22.3154 18.5658 22.0537 18.2431 22.0537H15.1406C14.8179 22.0537 14.5563 22.3154 14.5563 22.638V23.9798C14.5563 24.1415 14.5019 24.3012 14.4029 24.4294L14.3892 24.4471C13.9864 24.9693 13.7646 25.6202 13.7646 26.2797V28.1373H13.7573V26.2834C13.7573 25.621 13.5337 24.9678 13.1283 24.4451L13.1201 24.4346C13.0205 24.3063 12.9657 24.1462 12.9657 23.9837V22.6382C12.9657 22.3155 12.704 22.0538 12.3814 22.0538H9.27883C8.95614 22.0538 8.69446 22.3155 8.69446 22.6382V23.9799C8.69446 24.1416 8.64012 24.3013 8.54194 24.4285L8.52745 24.4472C8.39199 24.6229 8.27886 24.814 8.18595 25.0142V19.262C8.54487 19.477 8.96304 19.603 9.41113 19.603ZM9.07161 28.1372V26.2796C9.07161 25.877 9.20707 25.4797 9.45239 25.1616L9.46676 25.143C9.72237 24.8115 9.8632 24.3984 9.8632 23.9798V23.2224H11.797V23.9836C11.797 24.4041 11.939 24.8187 12.1961 25.1501L12.2043 25.1606C12.4522 25.4802 12.5887 25.8789 12.5887 26.2833V28.1372H9.07161ZM14.9333 28.1372V26.2796C14.9333 25.877 15.0687 25.4797 15.3148 25.1606L15.3284 25.143C15.5842 24.8115 15.725 24.3984 15.725 23.9798V23.2224H17.6588V23.9836C17.6588 24.4041 17.8007 24.8187 18.0579 25.1501L18.0661 25.1606C18.314 25.4802 18.4505 25.8789 18.4505 26.2833V28.1372H14.9333ZM20.7115 28.1372V26.2796C20.7115 25.877 20.847 25.4796 21.093 25.1606L21.1067 25.1429C21.3624 24.8114 21.5031 24.3983 21.5031 23.9796V23.2223H23.4368V23.9835C23.4368 24.404 23.5788 24.8186 23.8359 25.15L23.8441 25.1605C24.092 25.4801 24.2285 25.8788 24.2285 26.2832V28.1371H20.7115V28.1372Z" fill="black"/>
</g>
<defs>
<clipPath id="clip0_1_392">
<rect width="50" height="50" fill="white"/>
</clipPath>
</defs>
</svg>
