<svg width="24" height="25" viewBox="0 0 24 25" fill="none" xmlns="http://www.w3.org/2000/svg">
<path d="M5 22.4998H19C19.5304 22.4998 20.0391 22.2891 20.4142 21.914C20.7893 21.539 21 21.0303 21 20.4998V11.4998C21.0008 11.3682 20.9755 11.2377 20.9258 11.1159C20.876 10.9941 20.8027 10.8833 20.71 10.7898L12.71 2.78982C12.5226 2.60357 12.2692 2.49902 12.005 2.49902C11.7408 2.49902 11.4874 2.60357 11.3 2.78982L3.3 10.7898C3.20551 10.8824 3.13034 10.9929 3.07885 11.1148C3.02735 11.2366 3.00055 11.3675 3 11.4998V20.4998C3 21.0303 3.21071 21.539 3.58579 21.914C3.96086 22.2891 4.46957 22.4998 5 22.4998ZM10 20.4998V15.4998H14V20.4998H10ZM5 11.9098L12 4.90982L19 11.9098V20.4998H16V15.4998C16 14.9694 15.7893 14.4607 15.4142 14.0856C15.0391 13.7105 14.5304 13.4998 14 13.4998H10C9.46957 13.4998 8.96086 13.7105 8.58579 14.0856C8.21071 14.4607 8 14.9694 8 15.4998V20.4998H5V11.9098Z" fill="#D9D9D9"/>
</svg>
