<svg width="92" height="17" viewBox="0 0 92 17" fill="none" xmlns="http://www.w3.org/2000/svg">
<path d="M7.53469 16.02C9.85469 16.06 11.4747 15.14 12.8147 13.76L10.7347 11.74C10.1547 12.54 9.11469 13.38 7.51469 13.38C4.79469 13.38 3.09469 11.42 3.09469 8.28C3.09469 5.12 4.79469 3.16 7.51469 3.18C8.87469 3.18 10.1747 3.9 10.8747 4.94L12.8147 2.8C11.4747 1.42 9.61469 0.539999 7.53469 0.539999C3.13469 0.52 0.0546875 3.72 0.0546875 8.28C0.0546875 12.82 3.13469 16.02 7.53469 16.02ZM27.4297 0.7H24.3897V6.78H17.6697V0.7H14.6297V15.86H17.6697V9.38H24.3897V15.86H27.4297V0.7ZM36.305 16C40.105 16 42.765 13.42 42.765 9.74V0.7H39.725V9.7C39.725 11.82 38.405 13.16 36.305 13.16C34.205 13.16 32.885 11.82 32.885 9.7V0.7H29.845V9.74C29.845 13.42 32.505 16 36.305 16ZM51.3831 16C55.1831 16 57.8431 13.42 57.8431 9.74V0.7H54.8031V9.7C54.8031 11.82 53.4831 13.16 51.3831 13.16C49.2831 13.16 47.9631 11.82 47.9631 9.7V0.7H44.9231V9.74C44.9231 13.42 47.5831 16 51.3831 16ZM73.9166 0.679999H69.8166L63.1966 8V0.72H60.1566V15.86H63.1966V12.62L65.8766 9.58L70.2766 15.86H73.9966L67.9566 7.26L73.9166 0.679999ZM84.9314 0.7H81.3514L75.0314 15.86H78.3314L79.9114 12.06H86.2714L87.8314 15.86H91.1114L84.9314 0.7ZM80.9914 9.46L83.1314 4.34L85.2114 9.46H80.9914Z" fill="black"/>
</svg>
