<svg width="50" height="50" viewBox="0 0 50 50" fill="none" xmlns="http://www.w3.org/2000/svg">
<rect x="0.5" y="0.5" width="49" height="49" rx="24.5" fill="white"/>
<path fill-rule="evenodd" clip-rule="evenodd" d="M32.8456 18.5944C32.8456 19.3898 32.2008 20.0344 31.4056 20.0344C30.6104 20.0344 29.9656 19.3898 29.9656 18.5944C29.9656 17.7991 30.6104 17.1544 31.4056 17.1544C32.2009 17.1544 32.8456 17.7991 32.8456 18.5944ZM25 28.9999C22.7909 28.9999 21.0001 27.2091 21.0001 25C21.0001 22.7909 22.7909 21.0001 25 21.0001C27.2091 21.0001 28.9999 22.7909 28.9999 25C28.9999 27.2091 27.2091 28.9999 25 28.9999ZM25 18.8378C21.5967 18.8378 18.8378 21.5967 18.8378 25C18.8378 28.4033 21.5967 31.1622 25 31.1622C28.4033 31.1622 31.1622 28.4033 31.1622 25C31.1622 21.5967 28.4033 18.8378 25 18.8378ZM25 15.1623C28.2042 15.1623 28.5837 15.1744 29.8489 15.2322C31.0189 15.2856 31.6544 15.481 32.0772 15.6454C32.6373 15.8631 33.037 16.1232 33.457 16.5432C33.877 16.963 34.1371 17.3628 34.3547 17.923C34.519 18.3458 34.7146 18.9813 34.768 20.1513C34.8258 21.4167 34.8379 21.7962 34.8379 25.0004C34.8379 28.2046 34.8258 28.5841 34.768 29.8493C34.7146 31.0193 34.5192 31.6548 34.3547 32.0776C34.1371 32.6376 33.877 33.0374 33.457 33.4574C33.0372 33.8774 32.6374 34.1374 32.0772 34.3551C31.6544 34.5194 31.0189 34.7149 29.8489 34.7684C28.5837 34.8261 28.2042 34.8383 25 34.8383C21.7956 34.8383 21.4161 34.8261 20.1509 34.7684C18.9809 34.7149 18.3454 34.5196 17.9226 34.3551C17.3626 34.1374 16.9628 33.8774 16.5428 33.4574C16.123 33.0376 15.8628 32.6378 15.6451 32.0776C15.4808 31.6548 15.2852 31.0193 15.2318 29.8493C15.1741 28.5839 15.1619 28.2044 15.1619 25.0004C15.1619 21.7962 15.1741 21.4167 15.2318 20.1513C15.2852 18.9813 15.4806 18.3458 15.6451 17.923C15.8628 17.3629 16.1228 16.9632 16.5428 16.5432C16.9626 16.1232 17.3624 15.8631 17.9226 15.6454C18.3454 15.4812 18.9809 15.2856 20.1509 15.2322C21.4163 15.1744 21.7958 15.1623 25 15.1623ZM25 13C21.7411 13 21.3323 13.0139 20.0524 13.0722C18.7752 13.1305 17.9027 13.3334 17.1396 13.63C16.3504 13.9366 15.6813 14.347 15.0141 15.0141C14.347 15.6813 13.9366 16.3504 13.63 17.1396C13.3334 17.9029 13.1305 18.7752 13.0722 20.0524C13.0139 21.3323 13 21.7411 13 25C13 28.2589 13.0139 28.6677 13.0722 29.9476C13.1305 31.2248 13.3334 32.0971 13.63 32.8604C13.9366 33.6496 14.347 34.3188 15.0141 34.9859C15.6813 35.653 16.3504 36.0632 17.1396 36.37C17.9029 36.6666 18.7752 36.8695 20.0524 36.9278C21.3323 36.9861 21.7411 37 25 37C28.2589 37 28.6677 36.9861 29.9476 36.9278C31.2248 36.8695 32.0971 36.6666 32.8604 36.37C33.6496 36.0632 34.3188 35.653 34.9859 34.9859C35.653 34.3188 36.0632 33.6496 36.37 32.8604C36.6666 32.0971 36.8695 31.2248 36.9278 29.9476C36.9861 28.6677 37 28.2589 37 25C37 21.7411 36.9861 21.3323 36.9278 20.0524C36.8695 18.7752 36.6666 17.9029 36.37 17.1396C36.0632 16.3504 35.653 15.6813 34.9859 15.0141C34.3188 14.347 33.6496 13.9367 32.8604 13.63C32.0971 13.3334 31.2248 13.1305 29.9476 13.0722C28.6677 13.0139 28.2589 13 25 13Z" fill="url(#paint0_radial_1206_1611)"/>
<rect x="0.5" y="0.5" width="49" height="49" rx="24.5" stroke="#F5F5F5"/>
<defs>
<radialGradient id="paint0_radial_1206_1611" cx="0" cy="0" r="1" gradientUnits="userSpaceOnUse" gradientTransform="translate(16.5833 37.0833) scale(30.666)">
<stop stop-color="#FFB140"/>
<stop offset="0.2559" stop-color="#FF5445"/>
<stop offset="0.599" stop-color="#FC2B82"/>
<stop offset="1" stop-color="#8E40B7"/>
</radialGradient>
</defs>
</svg>
