<svg width="48" height="48" viewBox="0 0 48 48" fill="none" xmlns="http://www.w3.org/2000/svg">
<rect x="0.5" y="0.5" width="47" height="47" rx="23.5" fill="white"/>
<path fill-rule="evenodd" clip-rule="evenodd" d="M33.807 15.993C33.807 16.9873 33.0009 17.793 32.007 17.793C31.013 17.793 30.207 16.9873 30.207 15.993C30.207 14.9988 31.013 14.193 32.007 14.193C33.0012 14.193 33.807 14.9988 33.807 15.993ZM24 28.9999C21.2386 28.9999 19.0001 26.7614 19.0001 24C19.0001 21.2386 21.2386 19.0001 24 19.0001C26.7614 19.0001 28.9999 21.2386 28.9999 24C28.9999 26.7614 26.7614 28.9999 24 28.9999ZM24 16.2973C19.7459 16.2973 16.2973 19.7459 16.2973 24C16.2973 28.2541 19.7459 31.7027 24 31.7027C28.2541 31.7027 31.7027 28.2541 31.7027 24C31.7027 19.7459 28.2541 16.2973 24 16.2973ZM24 11.7028C28.0052 11.7028 28.4796 11.718 30.0612 11.7902C31.5237 11.857 32.318 12.1013 32.8465 12.3068C33.5466 12.5789 34.0462 12.904 34.5712 13.429C35.0962 13.9537 35.4213 14.4534 35.6934 15.1537C35.8987 15.6823 36.1432 16.4766 36.21 17.9391C36.2822 19.5209 36.2974 19.9952 36.2974 24.0005C36.2974 28.0057 36.2822 28.4801 36.21 30.0616C36.1432 31.5241 35.899 32.3184 35.6934 32.847C35.4213 33.547 35.0962 34.0467 34.5712 34.5717C34.0465 35.0967 33.5468 35.4218 32.8465 35.6939C32.318 35.8992 31.5237 36.1437 30.0612 36.2105C28.4796 36.2827 28.0052 36.2979 24 36.2979C19.9945 36.2979 19.5202 36.2827 17.9386 36.2105C16.4761 36.1437 15.6818 35.8995 15.1533 35.6939C14.4532 35.4218 13.9535 35.0967 13.4285 34.5717C12.9038 34.047 12.5784 33.5473 12.3063 32.847C12.101 32.3184 11.8566 31.5241 11.7898 30.0616C11.7176 28.4798 11.7023 28.0055 11.7023 24.0005C11.7023 19.9952 11.7176 19.5209 11.7898 17.9391C11.8566 16.4766 12.1008 15.6823 12.3063 15.1537C12.5784 14.4537 12.9035 13.954 13.4285 13.429C13.9533 12.904 14.453 12.5789 15.1533 12.3068C15.6818 12.1015 16.4761 11.857 17.9386 11.7902C19.5204 11.718 19.9948 11.7028 24 11.7028ZM24 9C19.9263 9 19.4154 9.01734 17.8155 9.09023C16.219 9.16312 15.1284 9.41672 14.1745 9.7875C13.188 10.1707 12.3516 10.6837 11.5177 11.5177C10.6837 12.3516 10.1707 13.188 9.7875 14.1745C9.41672 15.1287 9.16312 16.219 9.09023 17.8155C9.01734 19.4154 9 19.9263 9 24C9 28.0737 9.01734 28.5846 9.09023 30.1845C9.16312 31.781 9.41672 32.8713 9.7875 33.8255C10.1707 34.812 10.6837 35.6484 11.5177 36.4823C12.3516 37.3162 13.188 37.8291 14.1745 38.2125C15.1287 38.5833 16.219 38.8369 17.8155 38.9098C19.4154 38.9827 19.9263 39 24 39C28.0737 39 28.5846 38.9827 30.1845 38.9098C31.781 38.8369 32.8713 38.5833 33.8255 38.2125C34.812 37.8291 35.6484 37.3162 36.4823 36.4823C37.3162 35.6484 37.8291 34.812 38.2125 33.8255C38.5833 32.8713 38.8369 31.781 38.9098 30.1845C38.9827 28.5846 39 28.0737 39 24C39 19.9263 38.9827 19.4154 38.9098 17.8155C38.8369 16.219 38.5833 15.1287 38.2125 14.1745C37.8291 13.188 37.3162 12.3516 36.4823 11.5177C35.6484 10.6837 34.812 10.1709 33.8255 9.7875C32.8713 9.41672 31.781 9.16312 30.1845 9.09023C28.5846 9.01734 28.0737 9 24 9Z" fill="url(#paint0_radial_352_2585)"/>
<rect x="0.5" y="0.5" width="47" height="47" rx="23.5" stroke="#D9D9D9"/>
<defs>
<radialGradient id="paint0_radial_352_2585" cx="0" cy="0" r="1" gradientUnits="userSpaceOnUse" gradientTransform="translate(13.4792 39.1042) scale(38.3325)">
<stop stop-color="#FFB140"/>
<stop offset="0.2559" stop-color="#FF5445"/>
<stop offset="0.599" stop-color="#FC2B82"/>
<stop offset="1" stop-color="#8E40B7"/>
</radialGradient>
</defs>
</svg>
