<svg width="48" height="48" viewBox="0 0 48 48" fill="none" xmlns="http://www.w3.org/2000/svg">
<rect x="0.5" y="0.5" width="47" height="47" rx="23.5" fill="white"/>
<path d="M24.1803 8C15.7958 8 9 14.2883 9 22.0414C9 27.7686 11.3973 30.5043 14.6859 32.9965L14.7024 33.0047V39.7263C14.7024 40.044 15.0655 40.2256 15.3172 40.0358L21.0732 35.761L21.197 35.8147C22.1626 35.9921 23.1611 36.087 24.1803 36.087C32.5647 36.087 39.3605 29.7987 39.3605 22.0456C39.3605 14.2924 32.5647 8 24.1803 8Z" fill="#FFDD00"/>
<path d="M24.1803 8C15.7958 8 9 14.2883 9 22.0414C9 27.7686 11.3973 30.5043 14.6859 32.9965L14.7024 33.0047V39.7263C14.7024 40.044 15.0655 40.2256 15.3172 40.0358L21.0732 35.761L21.197 35.8147C22.1626 35.9921 23.1611 36.087 24.1803 36.087C32.5647 36.087 39.3605 29.7987 39.3605 22.0456C39.3605 14.2924 32.5647 8 24.1803 8ZM19.0927 25.5982C20.5822 25.5982 21.8531 24.707 22.2368 23.3329H24.4361C23.8997 25.9819 21.8366 27.7149 19.0927 27.7149C15.9031 27.7149 13.3738 25.3341 13.3738 22.0249C13.3738 18.7157 15.9031 16.3349 19.0927 16.3349C21.8655 16.3349 23.9409 18.105 24.4526 20.7994H22.2575C21.9232 19.3346 20.607 18.4228 19.0927 18.4228C16.947 18.4228 15.5194 19.9536 15.5194 22.0249C15.5194 24.0963 17.141 25.5982 19.0927 25.5982ZM33.5962 27.4963H31.5785V22.9451C31.5785 21.897 30.9679 21.3359 30.0312 21.3359C28.9832 21.3359 28.3106 21.9754 28.3106 23.2752V27.4963H26.2929V16.3679H28.3106V20.556C28.7933 19.8215 29.5773 19.4626 30.6378 19.4626C31.5001 19.4626 32.2016 19.7431 32.7504 20.3208C33.3157 20.8985 33.5962 21.6825 33.5962 22.6975V27.4963Z" fill="#000100"/>
<rect x="0.5" y="0.5" width="47" height="47" rx="23.5" stroke="#D9D9D9"/>
</svg>
