<svg width="31" height="28" viewBox="0 0 31 28" fill="none" xmlns="http://www.w3.org/2000/svg">
<path d="M15.5666 0.417696C1.4594 0.343456 -5.08172 15.2372 7.74772 21.8535C7.52212 22.6308 6.29908 26.8551 6.25012 27.187C6.21524 27.4465 6.413 27.6641 6.73364 27.5527C7.197 27.4878 12.1032 24.0414 12.9525 23.443C33.2959 25.8779 37.3016 1.3521 15.5666 0.417696Z" fill="white"/>
<path d="M8.2786 15.2615C8.25108 16.3281 6.60948 16.3322 6.58036 15.2615V10.2173H5.25556C4.15828 10.1895 4.15604 8.58311 5.25556 8.55463H9.6034C10.7013 8.58375 10.7026 10.1882 9.6034 10.2173H8.2786V15.2615V15.2615Z" fill="#FF8400"/>
<path d="M15.4146 15.9441C15.0335 16.145 14.2962 16.0961 14.1682 15.6861L13.7477 14.5853H11.1586L10.7378 15.6868C10.6104 16.0961 9.87284 16.1453 9.49204 15.9441C9.2578 15.8362 9.03284 15.5393 9.29076 14.7383L11.3218 9.39271C11.7375 8.29639 13.1669 8.29159 13.5852 9.39367L15.6152 14.737C15.8735 15.5396 15.6485 15.8365 15.4146 15.9441Z" fill="#FF8400"/>
<path d="M19.7058 15.9486H16.9816C16.533 15.9486 16.1679 15.5994 16.1679 15.1703V9.40361C16.197 8.28617 17.8716 8.28265 17.9013 9.40361V14.3918H19.7058C20.7775 14.4183 20.7797 15.9214 19.7058 15.9486Z" fill="#FF8400"/>
<path d="M26.3525 15.3092C26.277 16.0372 25.254 16.3054 24.8341 15.7031L22.8431 13.0647L22.5484 13.3594V15.2119C22.5205 16.3294 20.8792 16.3335 20.8498 15.2122V9.40361C20.8792 8.28521 22.518 8.28297 22.548 9.40361V11.2286L24.917 8.8596C25.2012 8.57128 25.6952 8.63337 25.9724 8.92137C26.2607 9.19529 26.3231 9.69513 26.0348 9.97673L24.0997 11.9114L26.1896 14.6804C26.3256 14.8596 26.3842 15.0862 26.3525 15.3092Z" fill="#FF8400"/>
<path d="M11.6053 13.0817H13.3013L12.4533 10.6724L11.6053 13.0817Z" fill="white"/>
</svg>
