<svg width="48" height="48" viewBox="0 0 48 48" fill="none" xmlns="http://www.w3.org/2000/svg">
<rect width="48" height="48" rx="24" fill="#FFDD00"/>
<path d="M24 12C17.3721 12 12 16.9709 12 23.0998C12 27.6271 13.8951 29.7896 16.4947 31.7597L16.5077 31.7662V37.0796C16.5077 37.3308 16.7948 37.4743 16.9937 37.3243L21.5439 33.9451L21.6418 33.9875C22.405 34.1278 23.1943 34.2028 24 34.2028C30.6279 34.2028 36 29.2319 36 23.103C36 16.9742 30.6279 12 24 12Z" fill="#FFDD00"/>
<path d="M24 12C17.3721 12 12 16.9709 12 23.0998C12 27.6271 13.8951 29.7896 16.4947 31.7597L16.5077 31.7662V37.0796C16.5077 37.3308 16.7948 37.4743 16.9937 37.3243L21.5439 33.9451L21.6418 33.9875C22.405 34.1277 23.1943 34.2028 24 34.2028C30.6279 34.2028 36 29.2319 36 23.103C36 16.9742 30.6279 12 24 12ZM19.9783 25.9114C21.1557 25.9114 22.1604 25.2068 22.4637 24.1207H24.2022C23.7782 26.2147 22.1473 27.5847 19.9783 27.5847C17.4569 27.5847 15.4575 25.7026 15.4575 23.0867C15.4575 20.4708 17.4569 18.5887 19.9783 18.5887C22.1702 18.5887 23.8108 19.988 24.2153 22.118H22.48C22.2158 20.96 21.1753 20.2392 19.9783 20.2392C18.2821 20.2392 17.1536 21.4493 17.1536 23.0867C17.1536 24.7241 18.4354 25.9114 19.9783 25.9114ZM31.4433 27.4118H29.8483V23.8141C29.8483 22.9856 29.3656 22.542 28.6252 22.542C27.7967 22.542 27.265 23.0476 27.265 24.075V27.4118H25.67V18.6148H27.265V21.9255C27.6466 21.3449 28.2664 21.0612 29.1046 21.0612C29.7864 21.0612 30.3409 21.283 30.7747 21.7396C31.2215 22.1962 31.4433 22.816 31.4433 23.6184V27.4118Z" fill="#000100"/>
</svg>
