<svg width="22" height="22" viewBox="0 0 22 22" fill="none" xmlns="http://www.w3.org/2000/svg">
<path d="M10.5752 0C5.05196 0 0.575195 4.14243 0.575195 9.2498C0.575195 13.0226 2.15443 14.8247 4.32078 16.4664L4.33165 16.4719V20.8997C4.33165 21.109 4.57085 21.2286 4.73665 21.1036L8.52844 18.2876L8.60999 18.3229C9.24603 18.4398 9.90382 18.5023 10.5752 18.5023C16.0984 18.5023 20.5752 14.3599 20.5752 9.25251C20.5752 4.14515 16.0984 0 10.5752 0ZM7.22374 11.5928C8.20499 11.5928 9.04217 11.0057 9.29496 10.1006H10.7437C10.3904 11.8456 9.0313 12.9872 7.22374 12.9872C5.12263 12.9872 3.45641 11.4189 3.45641 9.23892C3.45641 7.05898 5.12263 5.49062 7.22374 5.49062C9.05032 5.49062 10.4175 6.6567 10.7546 8.43164H9.30855C9.08838 7.4667 8.22129 6.866 7.22374 6.866C5.81031 6.866 4.86984 7.87442 4.86984 9.23892C4.86984 10.6034 5.93807 11.5928 7.22374 11.5928ZM16.778 12.8432H15.4488V9.84507C15.4488 9.15466 15.0465 8.785 14.4295 8.785C13.7391 8.785 13.296 9.20631 13.296 10.0625V12.8432H11.9669V5.51237H13.296V8.27127C13.6141 7.78744 14.1305 7.55096 14.8291 7.55096C15.3972 7.55096 15.8592 7.7358 16.2208 8.11634C16.5931 8.49687 16.778 9.01332 16.778 9.68198V12.8432Z" fill="white"/>
</svg>
