<svg width="16" height="16" viewBox="0 0 16 16" fill="none" xmlns="http://www.w3.org/2000/svg">
<path d="M6.63123 8.7047C6.93567 9.10928 7.32408 9.44404 7.77011 9.68628C8.21615 9.92852 8.70938 10.0726 9.21635 10.1087C9.72332 10.1448 10.2322 10.072 10.7084 9.89546C11.1846 9.71888 11.617 9.44255 11.9764 9.08523L14.1031 6.97118C14.7487 6.30665 15.106 5.41663 15.0979 4.4928C15.0898 3.56897 14.7171 2.68526 14.0599 2.03199C13.4027 1.37872 12.5137 1.00816 11.5843 1.00013C10.655 0.992105 9.75962 1.34725 9.09112 1.98907L7.87181 3.19407" stroke="black" stroke-width="1.5" stroke-linecap="round" stroke-linejoin="round"/>
<path d="M9.46683 7.29529C9.16239 6.89071 8.77398 6.55595 8.32794 6.31371C7.8819 6.07147 7.38867 5.92742 6.88171 5.89133C6.37474 5.85523 5.86589 5.92795 5.38968 6.10453C4.91347 6.28111 4.48103 6.55744 4.1217 6.91476L1.99499 9.02881C1.34933 9.69334 0.992058 10.5834 1.00013 11.5072C1.00821 12.431 1.38098 13.3147 2.03816 13.968C2.69535 14.6213 3.58436 14.9918 4.51372 14.9999C5.44308 15.0079 6.33843 14.6527 7.00693 14.0109L8.21916 12.8059" stroke="black" stroke-width="1.5" stroke-linecap="round" stroke-linejoin="round"/>
</svg>
