<svg width="18" height="22" viewBox="0 0 18 22" fill="none" xmlns="http://www.w3.org/2000/svg">
<path d="M17.0055 9C17.0055 16 8.54943 22 8.54943 22C8.54943 22 0.0933838 16 0.0933838 9C0.0933838 6.61305 0.984286 4.32387 2.5701 2.63604C4.15592 0.948211 6.30675 0 8.54943 0C10.7921 0 12.9429 0.948211 14.5288 2.63604C16.1146 4.32387 17.0055 6.61305 17.0055 9Z" fill="#DDDDDD"/>
<path d="M8.54946 12C10.1062 12 11.3681 10.6569 11.3681 9C11.3681 7.34315 10.1062 6 8.54946 6C6.99274 6 5.73077 7.34315 5.73077 9C5.73077 10.6569 6.99274 12 8.54946 12Z" fill="white"/>
</svg>
