<svg width="18" height="24" viewBox="0 0 18 24" fill="none" xmlns="http://www.w3.org/2000/svg">
<path fill-rule="evenodd" clip-rule="evenodd" d="M9 23.5C9 23.5 0 18.7915 0 9.5C0 4.5295 4.0295 0.5 9 0.5C13.9705 0.5 18 4.5295 18 9.5C18 18.7915 9 23.5 9 23.5ZM9 1.5C4.589 1.5 1 5.089 1 9.5C1 16.879 7.231 21.2505 9.0015 22.3435C10.7735 21.255 17 16.9025 17 9.5C17 5.089 13.411 1.5 9 1.5ZM9 14C6.5145 14 4.5 11.9855 4.5 9.5C4.5 7.0145 6.5145 5 9 5C11.4855 5 13.5 7.0145 13.5 9.5C13.5 11.9855 11.4855 14 9 14ZM9 6C7.067 6 5.5 7.567 5.5 9.5C5.5 11.433 7.067 13 9 13C10.933 13 12.5 11.433 12.5 9.5C12.5 7.567 10.933 6 9 6Z" fill="black"/>
</svg>
