<svg width="20" height="20" viewBox="0 0 20 20" fill="none" xmlns="http://www.w3.org/2000/svg">
<path d="M19.6326 15.6665L15.0689 11.5171C14.8532 11.321 14.5697 11.2165 14.2783 11.2255C13.9869 11.2345 13.7105 11.3564 13.5073 11.5654L10.8207 14.3283C10.174 14.2048 8.87396 13.7995 7.53573 12.4646C6.1975 11.1253 5.79221 9.82189 5.67209 9.17972L8.43275 6.49205C8.64203 6.28899 8.76409 6.01247 8.7731 5.72101C8.78211 5.42955 8.67737 5.14601 8.48103 4.93042L4.33273 0.36789C4.13631 0.151615 3.86332 0.0204285 3.57173 0.00219121C3.28014 -0.016046 2.99292 0.0801029 2.77109 0.270218L0.334875 2.3595C0.140776 2.5543 0.0249252 2.81357 0.00929798 3.08812C-0.00754219 3.36878 -0.328628 10.0172 4.82671 15.1748C9.32416 19.6711 14.9578 20 16.5093 20C16.7361 20 16.8753 19.9933 16.9123 19.991C17.1868 19.9757 17.446 19.8593 17.6398 19.6643L19.728 17.227C19.9189 17.0059 20.0157 16.7189 19.9979 16.4273C19.9801 16.1358 19.849 15.8627 19.6326 15.6665Z" fill="white"/>
</svg>
