<svg width="30" height="30" viewBox="0 0 30 30" fill="none" xmlns="http://www.w3.org/2000/svg">
<path d="M6.9125 6.25L6.25 3.75H1.5625C1.23098 3.75 0.913037 3.8817 0.678617 4.11612C0.444196 4.35054 0.3125 4.66848 0.3125 5C0.3125 5.33152 0.444196 5.64946 0.678617 5.88388C0.913037 6.1183 1.23098 6.25 1.5625 6.25H4.3375L8.375 22.5H25V20H10.325L9.9125 18.325L26.25 15.2125V6.25H6.9125ZM23.75 13.15L9.3125 15.8875L7.5 8.75H23.75V13.15ZM8.75 23.75C8.37916 23.75 8.01665 23.86 7.70831 24.066C7.39996 24.272 7.15964 24.5649 7.01773 24.9075C6.87581 25.2501 6.83868 25.6271 6.91103 25.9908C6.98337 26.3545 7.16195 26.6886 7.42417 26.9508C7.6864 27.213 8.02049 27.3916 8.38421 27.464C8.74792 27.5363 9.12492 27.4992 9.46753 27.3573C9.81014 27.2154 10.103 26.975 10.309 26.6667C10.515 26.3584 10.625 25.9958 10.625 25.625C10.625 25.1277 10.4275 24.6508 10.0758 24.2992C9.72419 23.9475 9.24728 23.75 8.75 23.75ZM23.75 23.75C23.3792 23.75 23.0166 23.86 22.7083 24.066C22.4 24.272 22.1596 24.5649 22.0177 24.9075C21.8758 25.2501 21.8387 25.6271 21.911 25.9908C21.9834 26.3545 22.162 26.6886 22.4242 26.9508C22.6864 27.213 23.0205 27.3916 23.3842 27.464C23.7479 27.5363 24.1249 27.4992 24.4675 27.3573C24.8101 27.2154 25.103 26.975 25.309 26.6667C25.515 26.3584 25.625 25.9958 25.625 25.625C25.625 25.1277 25.4275 24.6508 25.0758 24.2992C24.7242 23.9475 24.2473 23.75 23.75 23.75Z" fill="black"/>
</svg>
