<svg width="21" height="20" viewBox="0 0 21 20" fill="none" xmlns="http://www.w3.org/2000/svg">
<path d="M14.3857 10.6651C14.3076 10.5869 14.2148 10.5248 14.1127 10.4825C14.0105 10.4401 13.9011 10.4183 13.7905 10.4183C13.6799 10.4183 13.5705 10.4401 13.4683 10.4825C13.3662 10.5248 13.2734 10.5869 13.1953 10.6651L11.8534 12.007C11.2312 11.8218 10.0703 11.4009 9.33451 10.6651C8.59872 9.92937 8.17779 8.76849 7.99258 8.14637L9.33451 6.8045C9.41276 6.72638 9.47484 6.63361 9.51719 6.53149C9.55955 6.42936 9.58135 6.31988 9.58135 6.20932C9.58135 6.09876 9.55955 5.98929 9.51719 5.88716C9.47484 5.78503 9.41276 5.69226 9.33451 5.61415L5.96705 2.24683C5.88894 2.16858 5.79616 2.10651 5.69403 2.06415C5.5919 2.0218 5.48242 2 5.37185 2C5.26129 2 5.15181 2.0218 5.04968 2.06415C4.94755 2.10651 4.85477 2.16858 4.77665 2.24683L2.49352 4.52987C2.17361 4.84977 1.99345 5.2892 2.00018 5.7379C2.01955 6.93666 2.33693 11.1004 5.61852 14.3818C8.90011 17.6633 13.064 17.9798 14.2636 18H14.2872C14.7317 18 15.1518 17.8249 15.47 17.5067L17.7532 15.2236C17.8314 15.1455 17.8935 15.0528 17.9358 14.9506C17.9782 14.8485 18 14.739 18 14.6285C18 14.5179 17.9782 14.4084 17.9358 14.3063C17.8935 14.2042 17.8314 14.1114 17.7532 14.0333L14.3857 10.6651ZM14.2788 16.3155C13.2281 16.2978 9.63337 16.0158 6.80892 13.1906C3.9752 10.357 3.70075 6.74978 3.68391 5.72022L5.37185 4.03235L7.54892 6.20932L6.46038 7.29781C6.36143 7.39668 6.28868 7.51865 6.2487 7.6527C6.20872 7.78674 6.20277 7.92864 6.2314 8.06556C6.2516 8.16237 6.74578 10.458 8.14327 11.8555C9.54077 13.2529 11.8365 13.7471 11.9333 13.7673C12.0702 13.7967 12.2122 13.7912 12.3464 13.7514C12.4806 13.7115 12.6026 13.6385 12.7011 13.5391L13.7905 12.4507L15.9676 14.6276L14.2788 16.3155Z" fill="#D9D9D9"/>
</svg>
