<svg width="21" height="22" viewBox="0 0 21 22" fill="none" xmlns="http://www.w3.org/2000/svg">
<path d="M10.333 2.57721C5.91442 2.57721 2.33301 5.89115 2.33301 9.97705C2.33301 12.9953 3.59639 14.437 5.32947 15.7504L5.33817 15.7547V19.297C5.33817 19.4644 5.52953 19.5601 5.66217 19.4601L8.69561 17.2073L8.76084 17.2355C9.26968 17.329 9.79591 17.3791 10.333 17.3791C14.7516 17.3791 18.333 14.0651 18.333 9.97922C18.333 5.89333 14.7516 2.57721 10.333 2.57721Z" fill="white"/>
<path d="M10.333 2.57721C5.91442 2.57721 2.33301 5.89115 2.33301 9.97705C2.33301 12.9953 3.59639 14.437 5.32947 15.7504L5.33817 15.7547V19.297C5.33817 19.4644 5.52953 19.5601 5.66217 19.4601L8.69561 17.2073L8.76084 17.2355C9.26968 17.329 9.79591 17.3791 10.333 17.3791C14.7516 17.3791 18.333 14.0651 18.333 9.97922C18.333 5.89333 14.7516 2.57721 10.333 2.57721ZM7.65184 11.8515C8.43684 11.8515 9.10659 11.3818 9.30882 10.6577H10.4678C10.1851 12.0537 9.09789 12.967 7.65184 12.967C5.97095 12.967 4.63798 11.7123 4.63798 9.96835C4.63798 8.22439 5.97095 6.96971 7.65184 6.96971C9.11311 6.96971 10.2069 7.90257 10.4765 9.32252H9.31969C9.14355 8.55057 8.44989 8.07001 7.65184 8.07001C6.5211 8.07001 5.76872 8.87675 5.76872 9.96835C5.76872 11.0599 6.6233 11.8515 7.65184 11.8515ZM15.2952 12.8517H14.2319V10.4533C14.2319 9.90094 13.9101 9.60521 13.4165 9.60521C12.8641 9.60521 12.5097 9.94225 12.5097 10.6272V12.8517H11.4464V6.9871H12.5097V9.19422C12.7641 8.80716 13.1773 8.61798 13.7361 8.61798C14.1906 8.61798 14.5602 8.76585 14.8495 9.07028C15.1474 9.37471 15.2952 9.78786 15.2952 10.3228V12.8517Z" fill="#191919"/>
</svg>
