<svg width="21" height="20" viewBox="0 0 21 20" fill="none" xmlns="http://www.w3.org/2000/svg">
<path fill-rule="evenodd" clip-rule="evenodd" d="M15.8974 5.72963C15.8974 6.25988 15.4675 6.68962 14.9374 6.68962C14.4072 6.68962 13.9774 6.25988 13.9774 5.72963C13.9774 5.19938 14.4072 4.76962 14.9374 4.76962C15.4676 4.76962 15.8974 5.19938 15.8974 5.72963ZM10.667 12.6666C9.19424 12.6666 8.00037 11.4728 8.00037 10C8.00037 8.52725 9.19424 7.33338 10.667 7.33338C12.1397 7.33338 13.3336 8.52725 13.3336 10C13.3336 11.4728 12.1397 12.6666 10.667 12.6666ZM10.667 5.89188C8.39812 5.89188 6.55887 7.73113 6.55887 10C6.55887 12.2689 8.39812 14.1081 10.667 14.1081C12.9359 14.1081 14.7751 12.2689 14.7751 10C14.7751 7.73113 12.9359 5.89188 10.667 5.89188ZM10.667 3.4415C12.8031 3.4415 13.0561 3.44963 13.8996 3.48813C14.6796 3.52375 15.1032 3.654 15.3851 3.76363C15.7585 3.90875 16.025 4.08213 16.305 4.36213C16.585 4.642 16.7584 4.9085 16.9035 5.282C17.013 5.56388 17.1434 5.9875 17.179 6.7675C17.2175 7.61113 17.2256 7.86413 17.2256 10.0003C17.2256 12.1364 17.2175 12.3894 17.179 13.2329C17.1434 14.0129 17.0131 14.4365 16.9035 14.7184C16.7584 15.0918 16.585 15.3583 16.305 15.6383C16.0251 15.9183 15.7586 16.0916 15.3851 16.2368C15.1032 16.3463 14.6796 16.4766 13.8996 16.5123C13.0561 16.5508 12.8031 16.5589 10.667 16.5589C8.53074 16.5589 8.27774 16.5508 7.43424 16.5123C6.65424 16.4766 6.23062 16.3464 5.94874 16.2368C5.57537 16.0916 5.30887 15.9183 5.02887 15.6383C4.74899 15.3584 4.57549 15.0919 4.43037 14.7184C4.32087 14.4365 4.19049 14.0129 4.15487 13.2329C4.11637 12.3893 4.10824 12.1363 4.10824 10.0003C4.10824 7.86413 4.11637 7.61113 4.15487 6.7675C4.19049 5.9875 4.32074 5.56388 4.43037 5.282C4.57549 4.90863 4.74887 4.64213 5.02887 4.36213C5.30874 4.08213 5.57524 3.90875 5.94874 3.76363C6.23062 3.65413 6.65424 3.52375 7.43424 3.48813C8.27787 3.44963 8.53087 3.4415 10.667 3.4415ZM10.667 2C8.49437 2 8.22187 2.00925 7.36862 2.04813C6.51712 2.087 5.93549 2.22225 5.42674 2.42C4.90062 2.62438 4.45449 2.898 4.00974 3.34275C3.56499 3.7875 3.29137 4.23362 3.08699 4.75975C2.88924 5.26862 2.75399 5.85013 2.71512 6.70163C2.67624 7.55488 2.66699 7.82738 2.66699 10C2.66699 12.1726 2.67624 12.4451 2.71512 13.2984C2.75399 14.1499 2.88924 14.7314 3.08699 15.2403C3.29137 15.7664 3.56499 16.2125 4.00974 16.6573C4.45449 17.102 4.90062 17.3755 5.42674 17.58C5.93562 17.7778 6.51712 17.913 7.36862 17.9519C8.22187 17.9908 8.49437 18 10.667 18C12.8396 18 13.1121 17.9908 13.9654 17.9519C14.8169 17.913 15.3984 17.7778 15.9072 17.58C16.4334 17.3755 16.8795 17.102 17.3242 16.6573C17.769 16.2125 18.0425 15.7664 18.247 15.2403C18.4447 14.7314 18.58 14.1499 18.6189 13.2984C18.6577 12.4451 18.667 12.1726 18.667 10C18.667 7.82738 18.6577 7.55488 18.6189 6.70163C18.58 5.85013 18.4447 5.26862 18.247 4.75975C18.0425 4.23362 17.769 3.7875 17.3242 3.34275C16.8795 2.898 16.4334 2.6245 15.9072 2.42C15.3984 2.22225 14.8169 2.087 13.9654 2.04813C13.1121 2.00925 12.8396 2 10.667 2Z" fill="#D9D9D9"/>
</svg>
