<svg width="21" height="21" viewBox="0 0 21 21" fill="none" xmlns="http://www.w3.org/2000/svg">
<path d="M10.5 2C6.08141 2 2.5 5.31394 2.5 9.39984C2.5 12.418 3.76339 13.8597 5.49647 15.1731L5.50516 15.1775V18.7198C5.50516 18.8872 5.69652 18.9829 5.82917 18.8828L8.8626 16.6301L8.92783 16.6583C9.43667 16.7518 9.9629 16.8018 10.5 16.8018C14.9186 16.8018 18.5 13.4879 18.5 9.40201C18.5 5.31612 14.9186 2 10.5 2Z" fill="white"/>
<path d="M10.5 2C6.08141 2 2.5 5.31394 2.5 9.39984C2.5 12.418 3.76339 13.8597 5.49647 15.1731L5.50516 15.1775V18.7198C5.50516 18.8872 5.69652 18.9829 5.82917 18.8828L8.8626 16.6301L8.92783 16.6583C9.43667 16.7518 9.9629 16.8018 10.5 16.8018C14.9186 16.8018 18.5 13.4879 18.5 9.40201C18.5 5.31612 14.9186 2 10.5 2ZM7.81884 11.2743C8.60383 11.2743 9.27358 10.8046 9.47581 10.0805H10.6348C10.3521 11.4765 9.26488 12.3898 7.81884 12.3898C6.13794 12.3898 4.80497 11.1351 4.80497 9.39114C4.80497 7.64719 6.13794 6.3925 7.81884 6.3925C9.2801 6.3925 10.3739 7.32536 10.6435 8.74531H9.48668C9.31055 7.97336 8.61688 7.4928 7.81884 7.4928C6.68809 7.4928 5.93572 8.29954 5.93572 9.39114C5.93572 10.4827 6.7903 11.2743 7.81884 11.2743ZM15.4622 12.2745H14.3989V9.87605C14.3989 9.32373 14.0771 9.028 13.5834 9.028C13.0311 9.028 12.6767 9.36504 12.6767 10.05V12.2745H11.6133V6.40989H12.6767V8.61701C12.9311 8.22995 13.3443 8.04077 13.9031 8.04077C14.3576 8.04077 14.7272 8.18864 15.0164 8.49307C15.3144 8.7975 15.4622 9.21065 15.4622 9.74558V12.2745Z" fill="#D9D9D9"/>
</svg>
