<svg width="24" height="20" viewBox="0 0 24 20" fill="none" xmlns="http://www.w3.org/2000/svg">
<path fill-rule="evenodd" clip-rule="evenodd" d="M21.5 19.75H4C2.8955 19.75 2 18.8545 2 17.75V8.179C1.1385 7.956 0.5 7.181 0.5 6.25V4.7635C0.5 4.7625 0.5 4.762 0.5 4.761V4.75C0.5 4.6715 0.5215 4.6 0.5535 4.5335C0.556 4.529 0.5595 4.526 0.562 4.522C0.595 4.4585 0.6415 4.406 0.6975 4.362L4.1125 0.9475C4.2035 0.8305 4.34 0.75 4.5 0.75H4.5105C4.5115 0.75 4.5125 0.75 4.5135 0.75H7.5105C7.5115 0.75 7.5125 0.75 7.5135 0.75H10.5105C10.5115 0.75 10.5125 0.75 10.5135 0.75H13.5105C13.5115 0.75 13.5125 0.75 13.5135 0.75H16.5105C16.5115 0.75 16.5125 0.75 16.5135 0.75H21.5C22.6045 0.75 23.5 1.6455 23.5 2.75V17.75C23.5 18.8545 22.6045 19.75 21.5 19.75ZM7.5 18.75V14.25H5.5V18.75H7.5ZM1.5 6.25C1.5 6.802 1.948 7.25 2.5 7.25C3.052 7.25 3.5 6.802 3.5 6.25V5.25H1.5V6.25ZM4.6905 1.75L2.1905 4.25H3.8095L6.3095 1.75H4.6905ZM4.5 6.25C4.5 6.802 4.948 7.25 5.5 7.25C6.052 7.25 6.5 6.802 6.5 6.25V5.25H4.5V6.25ZM7.6905 1.75L5.1905 4.25H6.8095L9.3095 1.75H7.6905ZM7.5 6.25C7.5 6.802 7.948 7.25 8.5 7.25C9.052 7.25 9.5 6.802 9.5 6.25V5.25H7.5V6.25ZM10.6905 1.75L8.1905 4.25H9.8095L12.3095 1.75H10.6905ZM10.5 6.25C10.5 6.802 10.948 7.25 11.5 7.25C12.052 7.25 12.5 6.802 12.5 6.25V5.25H10.5V6.25ZM13.6905 1.75L11.1905 4.25H12.8095L15.3095 1.75H13.6905ZM16 2.4405L13.5 4.9405V6.25C13.5 7.3545 12.6045 8.25 11.5 8.25C10.8995 8.25 10.3665 7.9795 10 7.5605C9.6335 7.9795 9.1005 8.25 8.5 8.25C7.8995 8.25 7.3665 7.9795 7 7.5605C6.6335 7.9795 6.1005 8.25 5.5 8.25C4.8985 8.25 4.366 7.9795 3.999 7.5595C3.7385 7.855 3.3945 8.077 3 8.179V17.75C3 18.302 3.448 18.75 4 18.75H4.5V13.75C4.5 13.4735 4.7235 13.25 5 13.25H8C8.2765 13.25 8.5 13.4735 8.5 13.75V18.75H15C15.552 18.75 16 18.302 16 17.75V2.4405ZM22.5 2.75C22.5 2.198 22.052 1.75 21.5 1.75H17V17.75C17 18.116 16.8945 18.455 16.7225 18.75H21.5C22.052 18.75 22.5 18.302 22.5 17.75V2.75ZM14 14.25H10C9.7235 14.25 9.5 14.0265 9.5 13.75V10.25C9.5 9.9735 9.7235 9.75 10 9.75H14C14.2765 9.75 14.5 9.9735 14.5 10.25V13.75C14.5 14.0265 14.2765 14.25 14 14.25ZM13.5 10.75H10.5V13.25H13.5V10.75Z" fill="black"/>
</svg>
