<svg width="48" height="48" viewBox="0 0 48 48" fill="none" xmlns="http://www.w3.org/2000/svg">
<path d="M44 39H37.598V37H44C45.103 37 46 36.103 46 35V30.266L42 23.266V7C42 4.243 39.757 2 37 2H11C8.243 2 6 4.243 6 7V23.266L2 30.266V35C2 36.103 2.897 37 4 37H10.305V39H4C1.794 39 0 37.206 0 35V29.734L4 22.734V7C4 3.14 7.14 0 11 0H37C40.86 0 44 3.14 44 7V22.734L48 29.734V35C48 37.206 46.206 39 44 39Z" fill="black"/>
<path d="M45.7621 48H2.58606L4.29306 46.293C9.90506 40.68 10.0001 34.064 10.0001 33.998L10.0041 33.003L11.0001 33H37.9971L38.0001 33.999C38.0001 34.075 38.0871 41.604 43.6401 46.232L45.7621 48ZM7.25006 46H40.5491C37.0291 41.979 36.2331 37.08 36.0521 35H11.9371C11.7341 36.976 10.8751 41.55 7.25006 46Z" fill="black"/>
<path d="M24 18.9C20.195 18.9 17.1 15.805 17.1 12C17.1 8.195 20.195 5.1 24 5.1C27.805 5.1 30.9 8.195 30.9 12C30.9 15.805 27.805 18.9 24 18.9ZM24 6.9C21.188 6.9 18.9 9.188 18.9 12C18.9 14.812 21.188 17.1 24 17.1C26.812 17.1 29.1 14.812 29.1 12C29.1 9.188 26.812 6.9 24 6.9Z" fill="black"/>
<path d="M11.5 20.062C10.673 20.062 10 19.389 10 18.562C10 17.735 10.673 17.062 11.5 17.062C12.327 17.062 13 17.735 13 18.562C13 19.389 12.327 20.062 11.5 20.062ZM11.5 18.062C11.224 18.062 11 18.286 11 18.562C11 18.838 11.224 19.062 11.5 19.062C11.776 19.062 12 18.838 12 18.562C12 18.286 11.776 18.062 11.5 18.062Z" fill="black"/>
<path d="M40 11.062H33V5.062H40V11.062ZM35 9.062H38V7.062H35V9.062Z" fill="black"/>
<path d="M23 1H21V6.342H23V1Z" fill="black"/>
<path d="M27 1H25V6.342H27V1Z" fill="black"/>
<path d="M23 17.657H21V23H23V17.657Z" fill="black"/>
<path d="M27 17.657H25V23H27V17.657Z" fill="black"/>
<path d="M43 22H5V24H43V22Z" fill="black"/>
<path d="M47 29.062H1V31.062H47V29.062Z" fill="black"/>
<path d="M44 33H4V35H44V33Z" fill="black"/>
<path d="M39.615 42H8.14099V44H39.615V42Z" fill="black"/>
</svg>
