<svg width="20" height="21" viewBox="0 0 20 21" fill="none" xmlns="http://www.w3.org/2000/svg">
<path d="M17.4688 9.875C17.32 8.10974 16.5512 6.45411 15.2985 5.20146C14.0459 3.94881 12.3903 3.18 10.625 3.03125V0.5H9.375V3.03125C7.60974 3.18 5.95411 3.94881 4.70146 5.20146C3.44881 6.45411 2.68 8.10974 2.53125 9.875H0V11.125H2.53125C2.68 12.8903 3.44881 14.5459 4.70146 15.7985C5.95411 17.0512 7.60974 17.82 9.375 17.9688V20.5H10.625V17.9688C12.3903 17.82 14.0459 17.0512 15.2985 15.7985C16.5512 14.5459 17.32 12.8903 17.4688 11.125H20V9.875H17.4688ZM16.2188 11.125C16.0746 12.5595 15.4389 13.9 14.4195 14.9195C13.4 15.9389 12.0595 16.5746 10.625 16.7188V14.25H9.375V16.7188C7.94051 16.5746 6.59996 15.9389 5.58051 14.9195C4.56106 13.9 3.92541 12.5595 3.78125 11.125H6.25V9.875H3.78125C3.92541 8.44051 4.56106 7.09996 5.58051 6.08051C6.59996 5.06106 7.94051 4.42541 9.375 4.28125V6.75H10.625V4.28125C12.0595 4.42541 13.4 5.06106 14.4195 6.08051C15.4389 7.09996 16.0746 8.44051 16.2188 9.875H13.75V11.125H16.2188Z" fill="#616161"/>
<path d="M10 11.75C10.6904 11.75 11.25 11.1904 11.25 10.5C11.25 9.80964 10.6904 9.25 10 9.25C9.30964 9.25 8.75 9.80964 8.75 10.5C8.75 11.1904 9.30964 11.75 10 11.75Z" fill="#616161"/>
</svg>
