<svg width="16" height="16" viewBox="0 0 16 16" fill="none" xmlns="http://www.w3.org/2000/svg">
<path fill-rule="evenodd" clip-rule="evenodd" d="M8 0C3.58604 0 0 3.58604 0 8C0 12.414 3.58604 16 8 16C12.414 16 16 12.414 16 8C16 3.58604 12.414 0 8 0ZM8 0.727208C12.0208 0.727208 15.2727 3.97916 15.2727 7.99993C15.2727 12.0207 12.0208 15.2727 8 15.2727C3.97922 15.2727 0.727273 12.0207 0.727273 7.99993C0.727273 3.97916 3.97922 0.727208 8 0.727208Z" fill="white"/>
<path fill-rule="evenodd" clip-rule="evenodd" d="M7.99492 3.96587C7.79428 3.96892 7.63398 4.13392 7.63677 4.33467V9.80253C7.63512 9.90006 7.67266 9.99416 7.74102 10.0638C7.80938 10.1333 7.90285 10.1725 8.00038 10.1725C8.09791 10.1725 8.19138 10.1333 8.25974 10.0638C8.3281 9.99416 8.36564 9.90006 8.36399 9.80253V4.33467C8.36539 4.23638 8.32696 4.14164 8.25746 4.07227C8.18783 4.00277 8.09321 3.96435 7.99492 3.96587Z" fill="white"/>
<path fill-rule="evenodd" clip-rule="evenodd" d="M7.99492 11.2259C7.79428 11.2289 7.63398 11.3939 7.63677 11.5946V11.6653V11.6651C7.63512 11.7627 7.67266 11.8569 7.74102 11.9264C7.80938 11.996 7.90285 12.0352 8.00038 12.0352C8.09791 12.0352 8.19138 11.996 8.25974 11.9264C8.3281 11.8569 8.36564 11.7627 8.36399 11.6651V11.5945V11.5946C8.36539 11.4963 8.32696 11.4016 8.25733 11.3322C8.18783 11.2627 8.09322 11.2244 7.99493 11.2258L7.99492 11.2259Z" fill="white"/>
</svg>
